# Blender 3.5.1
# www.blender.org
o Sphere
v -1.140937 2.091968 0.427816
v -1.150175 1.900289 0.428825
v -0.642145 1.128757 0.960503
v -0.674481 1.097815 0.930817
v 0.063941 1.111793 1.214706
v 1.080912 1.327200 0.576735
v -0.486396 2.035586 -1.165758
v 0.191874 1.712798 -1.221956
v 0.343879 3.026874 -0.134186
v -0.083109 3.192908 0.202343
v -0.065793 3.113116 0.336457
v -0.456527 3.345530 -0.108035
v -0.476843 3.339952 -0.102068
v 0.183285 0.844786 1.107402
v 1.027541 0.926610 0.567015
v 0.040855 0.925666 -1.164973
v -0.589794 1.527463 -1.128338
v -0.816374 1.155470 -0.884065
v -0.840057 0.526634 0.543996
v 0.997359 0.792607 -0.449528
v 0.983062 0.622926 0.229296
v 0.849212 0.572732 -0.509769
v 0.085589 0.643544 -1.073495
v 0.377873 0.453983 -0.823560
v -1.181408 1.252211 -0.338194
v -1.052993 1.188268 -0.536771
v -0.756711 0.946802 -0.827913
v -0.967507 0.564062 0.365218
v 0.577427 0.091878 -0.262980
v 0.310597 0.274842 -0.700122
v -0.068378 0.364085 -0.897022
v -0.322007 0.319538 -0.769692
v -0.629359 0.181126 0.223809
v -0.388558 0.096756 -0.211742
v -0.160364 0.250063 0.640645
v -0.543452 0.218073 0.479292
v -0.543640 0.153145 0.337954
v 0.584386 0.075648 -0.137682
v 0.571818 0.072581 -0.214663
v -0.162743 0.022053 -0.040926
v -0.172059 0.026657 0.151683
v 0.035658 0.044754 0.240807
v 0.413944 1.947536 -1.111710
v 1.072220 1.361782 -0.515413
v 1.087572 1.472622 -0.464703
v 0.991070 1.886005 -0.455300
v 0.010237 2.993782 -0.755490
v 0.361244 3.023627 -0.433593
v 0.003030 3.168006 -0.565977
v 0.601186 2.614128 -0.695787
v 0.460576 2.555032 -0.877616
v -1.073439 2.166867 0.489249
v -0.620563 2.090493 0.931474
v -0.532562 2.161522 0.960359
v -0.912633 2.768584 0.228516
v -0.641208 3.124452 0.226732
v -0.488146 3.014391 0.432163
v -0.498625 2.153563 -1.122361
v -0.784648 2.936386 -0.351008
v -0.448124 2.537423 -0.972403
v -1.126265 2.396416 0.164024
v -1.138396 2.144698 -0.204694
v -1.080490 2.548504 0.108265
v -1.008068 2.643457 -0.244191
v -1.029393 2.541566 -0.274518
v 1.039470 1.497726 0.622631
v 0.965928 1.850812 0.402113
v 0.543658 2.616958 0.380292
v 0.420691 2.597509 0.613251
v -0.025980 1.773350 1.157116
v 0.107528 1.406795 1.219076
v 0.820410 1.714788 0.789291
v 0.459382 2.425144 0.716051
v -1.187001 1.136141 0.183913
v -1.026951 0.678635 0.306053
v -1.187740 1.120810 -0.089157
vn 0.2469 -0.6110 -0.7521
vn -0.1067 -0.0514 -0.9930
vn -0.6949 0.0373 0.7181
vn 0.4798 0.6549 -0.5839
vn -0.5843 0.4491 0.6760
vn -0.7865 -0.3599 -0.5019
vn -0.8199 -0.1385 0.5555
vn -0.3089 -0.4703 0.8267
vn -0.3738 -0.3392 -0.8633
vn 0.5753 -0.1683 -0.8004
vn -0.9454 -0.3252 0.0208
vn 0.5411 -0.6054 -0.5837
vn 0.0751 -0.9968 0.0275
vn -0.3190 -0.9477 0.0072
vn -0.6492 -0.6908 0.3182
vn -0.0995 -0.9041 0.4155
vn -0.0245 -0.9274 -0.3732
vn 0.8381 -0.5331 -0.1156
vn 0.4328 -0.6979 0.5706
vn 0.7462 0.1887 -0.6384
vn 0.9912 -0.1318 -0.0121
vn 0.3702 0.9289 0.0114
vn 0.8743 0.4832 0.0455
vn -0.3723 0.6761 -0.6358
vn -0.0819 0.8518 0.5174
vn 0.0904 0.3521 -0.9316
vn -0.7239 0.3316 -0.6049
vn -0.7951 0.6064 -0.0000
vn -0.8145 0.1240 -0.5667
vn -0.8186 0.3982 0.4140
vn -0.9615 0.2407 -0.1327
vn 0.5723 0.7351 0.3635
vn 0.9733 0.2264 0.0378
vn 0.3981 0.2920 0.8696
vn 0.0704 0.5226 0.8497
vn 0.7778 0.4414 0.4474
vn 0.5431 -0.0926 0.8345
vn -0.3377 0.0360 0.9405
vn -0.7661 -0.5602 -0.3151
vn -0.9988 0.0481 -0.0000
vt 0.274672 0.248074
vt 0.271163 0.280408
vt 0.126817 0.393442
vt 0.133618 0.399630
vt 0.679736 0.454186
vt 0.008491 0.367653
vt 0.523866 0.427030
vt 0.243623 0.944860
vt 0.603276 0.723581
vt 0.178686 0.879950
vt 0.697938 0.713772
vt 0.578181 0.087658
vt 0.195745 0.012907
vt 0.668798 0.069548
vt 0.682076 0.093266
vt 0.175847 0.027404
vt 0.661307 0.000000
vt 0.430287 0.488624
vt 0.282522 0.000000
vt 0.284213 0.001951
vt 0.427402 0.490945
vt 0.000000 0.404989
vt 0.779821 0.856688
vt 0.639363 0.488624
vt 0.945273 0.864319
vt 0.502637 0.478566
vt 0.699005 0.838212
vt 0.255358 0.765811
vt 0.293888 0.871323
vt 0.603212 0.804397
vt 0.558533 0.867774
vt 0.186425 0.496467
vt 0.709444 0.677981
vt 0.081986 0.650798
vt 0.350374 0.406818
vt 0.047967 0.566670
vt 0.984973 0.815408
vt 0.439218 0.488624
vt 0.123509 0.629243
vt 0.701622 0.871354
vt 0.264081 0.715266
vt 0.220186 0.655744
vt 0.444742 0.863127
vt 0.722080 0.511903
vt 0.350374 0.378158
vt 0.486569 0.869349
vt 0.761887 0.497452
vt 0.564948 0.890455
vt 0.840819 0.488624
vt 0.224307 0.493407
vt 0.708439 0.639618
vt 1.000000 0.710860
vt 0.179840 0.546879
vt 0.234216 0.621123
vt 1.000000 0.620602
vt 0.293888 0.664343
vt 0.670796 0.917846
vt 0.964526 0.553931
vt 0.627271 0.941042
vt 0.919106 0.546911
vt 0.783770 0.657557
vt 0.863300 0.621185
vt 0.083861 0.512721
vt 0.803270 0.762612
vt 0.149854 0.533215
vt 0.768518 0.701795
vt 0.785165 0.682528
vt 0.171088 0.533215
vt 0.989102 0.729386
vt 0.995188 0.717308
vt 0.178602 0.540000
vt 0.879961 0.668674
vt 0.859311 0.694839
vt 0.877961 0.728037
vt 0.122229 0.896733
vt 0.701622 0.656142
vt 0.033060 0.736678
vt 0.369120 0.326594
vt 0.018847 0.747761
vt 0.381874 0.316551
vt 0.000000 0.810199
vt 0.415125 0.254634
vt 0.511803 0.019001
vt 0.576760 0.525441
vt 0.533510 0.063016
vt 0.550044 0.010988
vt 0.546294 0.493167
vt 0.015663 0.950357
vt 0.453223 0.110586
vt 0.434096 0.094871
vt 0.052663 0.962624
vt 0.657616 0.554806
vt 0.260783 0.233434
vt 0.150336 0.231985
vt 0.137652 0.216558
vt 0.354452 0.597710
vt 0.285840 0.122007
vt 0.260698 0.050298
vt 0.374024 0.522883
vt 0.214759 0.064668
vt 0.592571 0.705828
vt 0.437005 0.586044
vt 0.566898 0.639893
vt 0.350374 0.672592
vt 0.311238 0.192778
vt 0.403855 0.725048
vt 0.350374 0.229681
vt 0.315734 0.164531
vt 0.357724 0.648938
vt 0.407546 0.643337
vt 0.412259 0.661138
vt 0.543764 0.405055
vt 0.538544 0.332766
vt 0.612875 0.200652
vt 0.070373 0.095013
vt 0.654580 0.216598
vt 0.717611 0.352463
vt 0.042155 0.260837
vt 0.694645 0.416236
vt 0.009535 0.316630
vt 0.597243 0.376990
vt 0.049324 0.123462
vt 0.656219 0.251625
vt 0.286602 0.405572
vt 0.241412 0.476184
vt 0.701692 0.624132
vt 0.701622 0.547729
vt 0.318611 0.404055
s 0
f 30/54/1 31/56/1 23/41/1 24/42/1
f 16/28/2 17/29/2 7/8/2 8/10/2
f 52/93/3 1/1/3 2/2/3 4/4/3 3/3/3 53/94/3
f 47/83/4 49/86/4 48/85/4 50/89/4 51/90/4
f 56/98/5 55/97/5 52/93/5 53/94/5 54/95/5 57/100/5
f 27/48/6 26/46/6 18/31/6
f 75/125/7 28/50/7 19/32/7 4/4/7 2/2/7 74/124/7
f 35/63/8 14/22/8 5/6/8 3/3/8 4/4/8 19/32/8 36/65/8
f 32/59/9 27/48/9 18/31/9 17/30/9 16/27/9 23/40/9 31/57/9
f 44/77/10 20/34/10 22/39/10 24/42/10 23/41/10 16/28/10 8/10/10 43/75/10
f 76/128/11 75/125/11 74/124/11
f 22/39/12 29/53/12 30/54/12 24/42/12
f 38/69/13 42/74/13 41/73/13 40/72/13 39/70/13
f 41/73/14 37/67/14 33/61/14 34/62/14 40/72/14
f 28/51/15 33/61/15 37/67/15 36/66/15 19/33/15
f 37/67/16 41/73/16 42/74/16 35/64/16 36/66/16
f 31/58/17 30/55/17 29/52/17 39/70/17 40/72/17 34/62/17 32/60/17
f 29/53/18 22/39/18 20/34/18 21/36/18 38/68/18 39/71/18
f 35/64/19 42/74/19 38/69/19 21/37/19 15/25/19 14/23/19
f 50/88/20 46/81/20 45/79/20 44/77/20 43/75/20 51/91/20
f 21/38/21 20/35/21 44/78/21 45/80/21 6/7/21 15/26/21
f 12/17/22 10/14/22 9/12/22 48/85/22 49/86/22
f 67/113/23 46/82/23 50/89/23 48/85/23 9/12/23 68/114/23
f 60/103/24 59/102/24 13/21/24 12/18/24 49/87/24 47/84/24
f 11/16/25 10/13/25 12/19/25 13/20/25 56/98/25 57/100/25
f 43/76/26 8/11/26 7/9/26 58/101/26 60/103/26 47/84/26 51/92/26
f 59/102/27 60/103/27 58/101/27 65/111/27 64/110/27
f 13/21/28 59/102/28 64/110/28 63/109/28 55/96/28 56/99/28
f 7/9/29 17/30/29 18/31/29 26/46/29 25/43/29 62/106/29 65/111/29 58/101/29
f 52/93/30 55/97/30 63/108/30 61/105/30 1/1/30
f 64/110/31 65/111/31 62/106/31 61/104/31 63/109/31
f 11/15/32 69/116/32 68/114/32 9/12/32 10/14/32
f 45/80/33 46/82/33 67/113/33 66/112/33 6/7/33
f 72/121/34 73/123/34 70/117/34 71/119/34
f 70/118/35 73/122/35 69/115/35 11/16/35 57/100/35 54/95/35
f 69/116/36 73/123/36 72/121/36 66/112/36 67/113/36 68/114/36
f 14/24/37 15/26/37 6/7/37 66/112/37 72/121/37 71/119/37 5/5/37
f 3/3/38 5/6/38 71/120/38 70/118/38 54/95/38 53/94/38
f 34/62/39 33/61/39 28/51/39 75/126/39 76/127/39 25/44/39 26/47/39 27/49/39 32/60/39
f 62/107/40 25/45/40 76/128/40 74/124/40 2/2/40 1/1/40 61/105/40
