# Blender 3.5.1
# www.blender.org
o Cube
v 0.982970 5.361607 1.483146
v 1.178133 5.361607 0.372962
v -1.474688 0.655204 1.877999
v -2.353201 4.087532 -2.058842
v -2.058704 4.125117 -2.353201
v -1.343413 1.817403 2.353201
v -1.721690 1.015290 2.112824
v 1.698131 5.007866 -0.535793
v 2.155743 3.225525 -0.791158
v 2.116854 4.266471 1.377270
v -2.032952 5.031297 -1.330331
v -2.353201 4.452321 -1.635180
v -2.080259 0.655204 0.159981
v -2.353201 1.033311 0.368033
v -2.353201 1.110582 -1.391439
v -2.036611 0.655204 -1.250089
v -0.759161 0.655204 -2.353201
v -2.353201 1.877444 -2.089859
v -2.089656 1.916713 -2.353201
v 0.770822 0.655204 1.194283
v -1.780884 4.399675 -2.353201
v 1.674671 4.600113 -1.727320
v -1.637186 4.718991 -2.147283
v -1.302977 5.361607 0.750240
v -1.342352 5.361607 -0.209820
v -1.997721 5.111438 -1.089064
v 2.109326 4.161714 2.026958
v -0.134776 5.361607 1.950926
v 0.385707 5.361607 1.991574
v 0.957386 5.283266 2.082515
v -1.823419 4.457726 2.353201
v 0.962530 5.277565 2.086287
v 0.956891 4.825151 2.353201
v 1.618552 3.851950 2.353201
v 2.127889 3.110131 1.408432
v 1.033213 0.788370 1.173419
v 2.109343 4.154289 2.031271
v 1.714795 4.020360 2.353201
v 2.119791 3.076580 -1.468522
v -0.503644 0.655204 -2.353201
v -0.087019 0.655204 -2.105525
v 1.770152 4.147708 -1.974931
v 0.927985 3.708629 -2.353201
v 1.726188 1.445941 -1.248006
v 1.668194 1.205679 0.387603
v 1.372198 0.986468 0.944860
v 1.825691 1.858165 0.990071
v -2.353201 4.693734 1.414077
v -2.170697 5.001795 1.311367
v -1.734954 5.171364 1.700660
v -1.842715 4.468616 2.345259
v -1.548852 5.162314 1.958265
v -2.124913 1.396636 1.959684
v -2.353201 1.500627 1.582214
v -2.353201 4.368927 1.778235
v -2.089413 4.290219 2.217237
vn -0.7075 0.0099 -0.7066
vn 0.9590 0.2618 -0.1085
vn -0.5994 0.6066 -0.5223
vn -0.8171 -0.5759 -0.0253
vn -0.5381 -0.5675 -0.6232
vn 0.2682 -0.3904 0.8807
vn 0.0750 0.9430 -0.3242
vn -0.1376 0.9814 0.1339
vn 0.1137 0.9845 0.1335
vn -0.0000 -0.0000 1.0000
vn 0.6954 0.7082 0.1222
vn -0.0000 1.0000 -0.0000
vn 0.4713 0.4438 0.7622
vn 0.9999 0.0099 0.0132
vn 0.8480 -0.4552 0.2714
vn 0.1267 0.4967 -0.8586
vn -0.0000 -1.0000 -0.0000
vn -0.0000 -0.0000 -1.0000
vn 0.4969 -0.2330 -0.8359
vn 0.6590 -0.3766 0.6510
vn 0.4423 -0.8895 -0.1150
vn 0.9721 -0.2346 -0.0000
vn -0.0671 0.5076 0.8590
vn -0.3745 0.9271 0.0154
vn -0.8654 0.4995 -0.0395
vn -1.0000 -0.0000 -0.0000
vn -0.6628 0.5588 0.4984
vn -0.8594 -0.0349 0.5101
vn -0.7137 -0.6537 0.2516
vn -0.4157 -0.0756 0.9064
vt 0.085714 0.688710
vt 0.064254 0.600437
vt 0.640446 0.381844
vt 0.966903 0.381844
vt 0.027889 0.357101
vt 0.629464 0.381844
vt 0.341711 0.385307
vt 0.356350 0.091499
vt 0.316341 0.363195
vt 0.626308 0.403976
vt 0.629267 0.288404
vt 0.012977 0.332054
vt 0.659707 0.353387
vt 0.983044 0.090707
vt 0.019661 0.529675
vt 0.843808 0.110296
vt 0.000000 0.684922
vt 0.975463 0.252555
vt 0.314794 0.446525
vt 0.295195 0.013065
vt 0.341983 0.419756
vt 0.323100 0.062999
vt 1.000000 0.524845
vt 0.172564 0.363195
vt 0.160150 0.337032
vt 1.000000 0.652738
vt 0.300011 0.328853
vt 0.283991 0.360979
vt 0.985019 0.637298
vt 0.876382 0.713970
vt 0.356349 0.513749
vt 0.456746 0.385041
vt 0.979889 0.710736
vt 0.356350 0.267100
vt 0.956447 0.729524
vt 0.454362 0.404838
vt 0.463064 0.377992
vt 0.786248 0.416151
vt 0.292585 0.364915
vt 0.647728 0.425901
vt 0.922944 0.008941
vt 0.017490 0.433309
vt 0.676898 0.706665
vt 0.280430 0.382547
vt 0.676898 0.438018
vt 0.265326 0.617959
vt 0.263471 0.540547
vt 0.312801 0.466193
vt 0.275641 0.006505
vt 0.004556 0.737023
vt 0.356382 0.094192
vt 0.983044 0.304979
vt 0.177854 0.720554
vt 0.538951 0.000727
vt 0.136299 0.726512
vt 0.496890 0.000000
vt 0.091316 0.736699
vt 0.450362 0.005553
vt 0.671601 0.076360
vt 0.090953 0.737023
vt 0.449922 0.006008
vt 0.448469 0.042692
vt 0.393873 0.120141
vt 0.963584 0.340383
vt 0.887772 0.282153
vt 0.442244 0.366862
vt 0.696323 0.325634
vt 0.763127 0.415801
vt 0.356350 0.094794
vt 0.982579 0.305485
vt 0.386369 0.106431
vt 0.977184 0.335815
vt 0.563735 0.746087
vt 0.815819 0.061999
vt 0.856464 0.711647
vt 0.356389 0.534297
vt 0.361610 0.569059
vt 0.826021 0.688038
vt 0.883045 0.000000
vt 0.636535 0.713773
vt 0.594344 0.644793
vt 0.441307 0.718028
vt 0.676898 0.605095
vt 0.693407 0.119833
vt 0.699354 0.474063
vt 0.714001 0.251499
vt 0.708472 0.301307
vt 0.731112 0.431554
vt 0.779627 0.281414
vt 0.081132 0.047347
vt 0.339805 0.658230
vt 0.087166 0.020310
vt 0.305969 0.691964
vt 0.050533 0.001467
vt 0.000000 0.059501
vt 0.673206 0.075505
vt 0.292429 0.713633
vt 0.652384 0.018857
vt 0.027541 0.000000
vt 0.031024 0.306955
vt 0.693407 0.323121
vt 0.064215 0.301301
vt 0.051841 0.073582
vt 0.013309 0.076824
vt 0.693407 0.090133
s 0
f 18/32/1 4/6/1 5/10/1 19/36/1
f 42/79/2 22/41/2 8/14/2 10/18/2 9/16/2 39/74/2
f 21/39/3 5/9/3 4/7/3 12/21/3 11/19/3 23/44/3
f 15/27/4 16/28/4 13/24/4 14/25/4
f 16/29/5 15/26/5 18/33/5 19/35/5 17/30/5
f 34/63/6 6/11/6 7/13/6 3/3/6 20/37/6 36/66/6
f 11/19/7 26/48/7 25/47/7 2/2/7 8/15/7 22/42/7 23/44/7
f 52/97/8 28/53/8 24/46/8 50/93/8
f 29/55/9 30/57/9 1/1/9
f 38/71/10 33/62/10 31/59/10 6/11/10 34/63/10
f 10/17/11 8/15/11 2/2/11 1/1/11 30/57/11 32/60/11 27/50/11
f 2/2/12 25/47/12 24/46/12 28/53/12 29/55/12 1/1/12
f 27/51/13 32/61/13 33/62/13 38/71/13 37/69/13
f 9/16/14 10/18/14 27/52/14 37/70/14 35/65/14
f 47/89/15 46/87/15 45/86/15
f 21/40/16 23/45/16 22/43/16 42/80/16 43/81/16
f 17/30/17 40/75/17 41/78/17 20/38/17 3/4/17 13/23/17 16/29/17
f 19/36/18 5/10/18 21/40/18 43/81/18 40/76/18 17/31/18
f 40/76/19 43/81/19 42/80/19 39/73/19 44/82/19 41/77/19
f 38/72/20 34/64/20 36/67/20 46/87/20 47/89/20 35/65/20 37/70/20
f 41/78/21 44/83/21 45/85/21 46/88/21 36/68/21 20/38/21
f 44/84/22 39/74/22 9/16/22 35/65/22 47/89/22 45/86/22
f 28/54/23 52/98/23 51/96/23 31/59/23 33/62/23 32/61/23 30/58/23 29/56/23
f 25/47/24 26/48/24 49/91/24 50/93/24 24/46/24
f 26/49/25 11/20/25 12/22/25 48/90/25 49/92/25
f 54/102/26 55/103/26 48/90/26 12/22/26 4/8/26 18/34/26 15/27/26 14/25/26
f 51/95/27 52/99/27 50/94/27 49/92/27 48/90/27 55/103/27 56/104/27
f 55/103/28 54/102/28 53/100/28 56/104/28
f 3/5/29 7/12/29 53/100/29 54/102/29 14/25/29 13/24/29
f 6/11/30 31/59/30 51/96/30 56/105/30 53/101/30 7/13/30
