# Blender 3.5.1
# www.blender.org
o Sphere.002
v -2.648209 2.259728 0.483346
v -1.934249 2.287070 1.690490
v -0.993034 0.106318 2.521126
v -2.848992 0.101316 0.817016
v -2.754057 1.121868 0.959877
v -2.237609 0.102964 1.813619
v -2.363062 1.179019 1.596577
v -1.558664 2.103329 1.929013
v -0.808532 0.643506 2.553352
v -0.255822 1.565687 2.619393
v -0.185006 2.427947 2.481112
v 2.647723 0.116132 1.271308
v 1.098535 0.111956 2.616389
v 1.174511 1.742769 2.493287
v 0.996426 1.286424 2.663882
v 2.476006 1.871455 0.594301
v 2.468850 1.062962 1.164751
v 2.476006 1.871455 -0.984023
v 1.945353 3.492895 -0.989044
v 2.647723 0.116132 -0.944275
v 2.512100 1.502493 -1.198811
v 1.793742 3.523173 -1.350570
v -0.740466 4.981719 -0.453540
v -1.805180 4.043327 -0.586488
v -2.648209 2.259728 -0.025114
v -1.397589 0.105229 -2.271999
v -1.330370 1.776568 -2.308406
v -1.644812 2.965593 -1.712920
v -2.172601 3.265975 -0.793426
v -2.848992 0.101316 0.217403
v 2.401827 1.529753 -1.457408
v 2.235620 0.115022 -1.915516
v 1.990041 2.429010 -1.759852
v -0.035817 0.108899 -2.673137
v 1.935580 0.114213 -2.259895
v -0.091349 1.923307 -2.674811
v 1.906239 2.225224 -1.894517
v 1.847970 0.384797 -2.309260
v 0.177657 1.139136 -2.746253
v 1.473254 2.066425 2.222591
v 2.195503 1.547599 1.569050
v 2.361621 2.220966 0.876609
v 1.820896 3.737035 -0.413054
v 2.357337 2.219169 0.901204
v 1.123265 3.460036 1.819562
v 1.513866 3.622113 1.326451
v 1.421736 3.947247 -1.335614
v -0.446760 5.097034 -0.368844
v -0.792450 4.935903 -0.502157
v -1.270320 4.514729 -0.852139
v -1.285874 3.692617 -1.538565
v 0.093706 2.587371 -2.466396
v 0.613928 2.890488 -2.215144
v 1.237551 4.489047 0.126036
v 0.894933 4.824281 -0.601390
v 1.164419 4.211404 0.915265
v -0.246143 5.175162 -0.304322
v -0.841500 4.892672 0.034118
v -1.744735 3.198571 1.488139
v -1.805180 4.043326 0.280168
v -2.122200 3.372607 0.740959
v -1.525194 3.713426 1.427600
v -1.581382 4.240572 0.420458
v -0.266330 5.160090 -0.235359
v 0.171743 4.500898 1.210565
v -0.737146 4.932826 0.072765
v -0.349639 3.248277 2.264341
v 0.543160 3.210591 2.183816
v 0.707674 3.721885 1.931901
v 0.504316 4.283627 1.478597
v -1.051058 3.901052 1.593876
v -0.590299 4.384260 1.214679
vn -0.8524 0.0061 0.5229
vn -0.4028 0.1771 0.8980
vn -0.0669 0.6308 0.7730
vn -0.0453 -0.0443 0.9980
vn -0.4911 0.1169 0.8633
vn 0.9327 0.1635 0.3214
vn 0.9943 0.1050 0.0201
vn 0.8909 0.2905 -0.3493
vn -0.1381 0.7902 -0.5970
vn -0.9957 0.0926 -0.0000
vn -0.8637 0.0238 -0.5035
vn -0.9041 0.4273 -0.0000
vn 0.9204 0.0183 -0.3906
vn 0.2042 -0.1113 -0.9726
vn 0.0027 -1.0000 -0.0000
vn 0.7481 0.1233 -0.6521
vn -0.2825 -0.0095 -0.9592
vn 0.6868 0.0482 0.7252
vn 0.9453 0.3259 0.0113
vn 0.8445 0.4994 0.1936
vn 0.7513 0.3264 0.5736
vn 0.3306 0.1975 -0.9229
vn -0.3035 0.3613 -0.8817
vn -0.6891 0.4721 -0.5498
vn -0.7514 0.5332 0.3887
vn 0.4034 0.3832 -0.8309
vn -0.0027 0.6409 -0.7676
vn 0.7526 0.6421 -0.1462
vn -0.6612 0.7502 -0.0000
vn -0.4472 0.2536 0.8577
vn -0.8291 0.2798 0.4840
vn -0.4588 0.7765 0.4320
vn -0.3859 0.9184 0.0877
vn -0.1347 0.8859 0.4439
vn 0.3368 0.8922 0.3010
vn 0.5178 0.6473 0.5593
vn 0.3942 0.3385 0.8544
vn 0.0889 0.2410 0.9664
vt 0.932329 0.516968
vt 0.596160 0.440534
vt 0.609290 0.522560
vt 0.794476 0.607322
vt 0.424847 0.290689
vt 0.773563 0.425313
vt 0.998297 0.426375
vt 0.293482 0.447523
vt 0.990727 0.469742
vt 0.693564 0.439012
vt 0.786072 0.494684
vt 0.372058 0.394251
vt 0.697059 0.483538
vt 0.626959 0.556516
vt 0.751762 0.624123
vt 0.678486 0.671651
vt 0.607555 0.676889
vt 0.006426 0.520345
vt 0.310023 0.000000
vt 0.776196 0.865020
vt 0.424847 0.120687
vt 0.794476 0.772957
vt 0.662131 0.781326
vt 0.700981 0.769666
vt 0.091947 0.641387
vt 0.035488 0.592909
vt 0.698988 0.851683
vt 0.210015 0.605032
vt 0.252435 0.736813
vt 0.172166 0.469312
vt 0.130316 0.008185
vt 0.218752 0.571365
vt 0.812710 0.137066
vt 0.284008 0.733112
vt 0.597778 0.017510
vt 0.820777 0.751123
vt 0.514371 0.096176
vt 0.820412 0.639869
vt 0.441869 0.238198
vt 0.892379 0.516068
vt 0.037567 0.341210
vt 0.568957 0.425313
vt 0.573375 0.290225
vt 0.540547 0.190606
vt 0.816295 0.585112
vt 0.487735 0.161089
vt 0.951185 0.425313
vt 0.424847 0.411547
vt 0.244847 0.449738
vt 0.241481 0.569174
vt 0.053060 0.045199
vt 0.255688 0.453150
vt 0.290527 0.637151
vt 0.833909 0.227974
vt 0.000000 0.232237
vt 0.682908 0.425313
vt 0.836948 0.418677
vt 0.026236 0.070808
vt 0.289362 0.449738
vt 0.676951 0.278634
vt 0.299292 0.619771
vt 0.828817 0.245506
vt 0.300046 0.470597
vt 0.830218 0.397269
vt 0.700028 0.342081
vt 0.000000 0.709091
vt 0.632580 0.799842
vt 0.665462 0.840566
vt 0.020842 0.643397
vt 0.079891 0.676320
vt 0.216855 0.770620
vt 0.078133 0.676815
vt 0.063483 0.811550
vt 0.515793 0.768106
vt 0.092853 0.806601
vt 0.782267 0.103308
vt 0.300046 0.771515
vt 0.620378 0.007102
vt 0.827393 0.776809
vt 0.594169 0.021632
vt 0.817450 0.745616
vt 0.559924 0.058878
vt 0.794476 0.695168
vt 0.566900 0.129997
vt 0.688994 0.223195
vt 0.727829 0.196086
vt 0.204936 0.849359
vt 0.890300 0.879126
vt 0.731091 0.028375
vt 0.274197 0.863431
vt 0.824218 0.864703
vt 0.957076 0.865341
vt 0.143030 0.847458
vt 0.635742 0.000000
vt 0.832449 0.794343
vt 0.860050 0.741452
vt 1.000000 0.618009
vt 0.533540 0.535848
vt 0.888506 0.641404
vt 0.935188 0.595291
vt 0.510081 0.490712
vt 0.491405 0.553313
vt 0.987026 0.652186
vt 0.897410 0.664988
vt 0.838006 0.792457
vt 0.424847 0.683775
vt 0.967434 0.803638
vt 0.863088 0.750564
vt 0.539059 0.661887
vt 0.540708 0.729843
vt 0.070584 0.840476
vt 0.496408 0.738855
vt 0.445601 0.714901
vt 0.995094 0.820696
vt 0.119575 0.876028
vt 0.478336 0.594572
vt 1.000000 0.693756
vt 0.434533 0.623909
vt 0.964371 0.743862
s 0
f 6/11/1 7/13/1 5/10/1 4/6/1
f 10/16/2 11/17/2 8/14/2 9/15/2
f 69/112/3 70/113/3 65/106/3 72/118/3 71/116/3 67/109/3 68/110/3
f 13/22/4 15/24/4 10/16/4 9/15/4 3/4/4
f 3/4/5 9/15/5 8/14/5 2/3/5 7/13/5 6/11/5
f 44/72/6 41/69/6 17/26/6 16/25/6 42/70/6
f 21/32/7 18/28/7 16/25/7 17/26/7 12/18/7 20/30/7
f 31/50/8 33/53/8 22/34/8 19/29/8 18/28/8 21/32/8
f 48/78/9 49/80/9 23/35/9
f 25/40/10 30/47/10 4/7/10 5/9/10 1/1/10
f 28/44/11 27/43/11 26/42/11 30/48/11 25/39/11 29/46/11
f 60/99/12 24/38/12 29/45/12 25/40/12 1/1/12 61/100/12
f 21/32/13 20/30/13 32/52/13 31/50/13
f 38/64/14 35/57/14 34/56/14 39/65/14
f 12/19/15 13/21/15 3/5/15 6/12/15 4/8/15 30/49/15 26/41/15 34/55/15 35/58/15 32/51/15 20/31/15
f 35/59/16 38/63/16 37/61/16 33/53/16 31/50/16 32/52/16
f 27/43/17 36/60/17 39/65/17 34/56/17 26/42/17
f 12/20/18 17/27/18 41/68/18 40/67/18 14/23/18 15/24/18 13/22/18
f 43/71/19 42/70/19 16/25/19 18/28/19 19/29/19
f 56/93/20 46/75/20 44/72/20 42/70/20 43/71/20 54/87/20
f 44/72/21 46/75/21 45/73/21 40/66/21 41/69/21
f 39/65/22 36/60/22 52/85/22 53/86/22 37/62/22 38/64/22
f 28/44/23 51/84/23 52/85/23 36/60/23 27/43/23
f 28/44/24 29/46/24 24/37/24 50/82/24 51/84/24
f 59/97/25 62/103/25 63/104/25 60/99/25 61/100/25
f 33/54/26 37/62/26 53/86/26 47/76/26 22/33/26
f 49/80/27 48/78/27 57/94/27 55/89/27 47/76/27 53/86/27 52/85/27 51/84/27 50/82/27
f 47/77/28 55/90/28 54/87/28 43/71/28 19/29/28 22/34/28
f 58/96/29 23/36/29 49/81/29 50/83/29 24/38/29 60/99/29 63/104/29
f 67/109/30 71/116/30 62/102/30 59/98/30 2/3/30 8/14/30 11/17/30
f 1/2/31 5/10/31 7/13/31 2/3/31 59/98/31 61/101/31
f 71/117/32 72/119/32 66/108/32 58/96/32 63/104/32 62/103/32
f 48/79/33 23/36/33 58/96/33 66/108/33 64/105/33 57/95/33
f 65/107/34 64/105/34 66/108/34 72/119/34
f 55/91/35 57/95/35 64/105/35 65/107/35 70/114/35 56/92/35 54/88/35
f 56/93/36 70/115/36 69/111/36 45/73/36 46/75/36
f 45/74/37 69/112/37 68/110/37 14/23/37 40/67/37
f 14/23/38 68/110/38 67/109/38 11/17/38 10/16/38 15/24/38
