# Blender v2.91.2 OBJ File: 'Troncos.blend'
# www.blender.org
mtllib CopaArvore_1.mtl
o Cube
v -1.000000 -1.000000 1.000000
v -1.000000 1.000000 1.000000
v -1.000000 -1.000000 -1.000000
v -1.000000 1.000000 -1.000000
v 1.000000 -1.000000 1.000000
v 1.000000 1.000000 1.000000
v 1.000000 -1.000000 -1.000000
v 1.000000 1.000000 -1.000000
v -1.145866 -1.145866 -0.593300
v -1.219136 -1.219136 -0.000000
v -1.145866 -1.145866 0.593300
v -1.145866 -0.593300 1.145866
v -1.219136 -0.000000 1.219136
v -1.145866 0.593300 1.145866
v -1.145866 1.145866 0.593300
v -1.219136 1.219136 0.000000
v -1.145866 1.145866 -0.593300
v -1.145866 0.593300 -1.145866
v -1.219136 -0.000000 -1.219136
v -1.145866 -0.593300 -1.145866
v 0.593300 -1.145866 -1.145866
v 0.000000 -1.219136 -1.219136
v -0.593300 -1.145866 -1.145866
v -0.593300 1.145866 -1.145866
v -0.000000 1.219136 -1.219136
v 0.593300 1.145866 -1.145866
v 1.145866 0.593300 -1.145866
v 1.219136 -0.000000 -1.219136
v 1.145866 -0.593300 -1.145866
v 1.145866 -1.145866 0.593300
v 1.219136 -1.219136 0.000000
v 1.145866 -1.145866 -0.593300
v 1.145866 1.145866 -0.593300
v 1.219136 1.219136 0.000000
v 1.145866 1.145866 0.593300
v 1.145866 0.593300 1.145866
v 1.219136 -0.000000 1.219136
v 1.145865 -0.593300 1.145866
v -0.593300 -1.145866 1.145866
v -0.000000 -1.219136 1.219136
v 0.593300 -1.145866 1.145866
v 0.593300 1.145866 1.145866
v -0.000000 1.219136 1.219136
v -0.593300 1.145866 1.145866
v -1.457980 -0.632314 0.632314
v -1.563658 -0.000000 0.666281
v -1.457980 0.632314 0.632314
v -1.563658 -0.666281 -0.000000
v -1.679013 0.000000 0.000000
v -1.563658 0.666281 0.000000
v -1.457980 -0.632314 -0.632314
v -1.563658 0.000000 -0.666281
v -1.457980 0.632314 -0.632314
v -0.632314 -0.632314 -1.457980
v -0.666281 -0.000000 -1.563658
v -0.632314 0.632314 -1.457980
v 0.000000 -0.666281 -1.563658
v 0.000000 0.000000 -1.679013
v -0.000000 0.666281 -1.563658
v 0.632314 -0.632314 -1.457980
v 0.666281 0.000000 -1.563658
v 0.632314 0.632314 -1.457980
v 1.457980 -0.632314 -0.632314
v 1.563658 -0.000000 -0.666281
v 1.457980 0.632314 -0.632314
v 1.563658 -0.666281 0.000000
v 1.679013 0.000000 0.000000
v 1.563658 0.666281 -0.000000
v 1.457980 -0.632314 0.632314
v 1.563658 0.000000 0.666281
v 1.457980 0.632314 0.632314
v 0.632314 -0.632314 1.457980
v 0.666281 -0.000000 1.563658
v 0.632314 0.632314 1.457980
v -0.000000 -0.666281 1.563658
v -0.000000 0.000000 1.679013
v 0.000000 0.666281 1.563658
v -0.632314 -0.632314 1.457980
v -0.666281 0.000000 1.563658
v -0.632314 0.632314 1.457980
v -0.632314 -1.457980 -0.632314
v -0.000000 -1.563658 -0.666281
v 0.632314 -1.457980 -0.632314
v -0.666281 -1.563658 0.000000
v 0.000000 -1.679013 0.000000
v 0.666281 -1.563658 -0.000000
v -0.632314 -1.457980 0.632314
v 0.000000 -1.563658 0.666281
v 0.632314 -1.457980 0.632314
v 0.632314 1.457980 -0.632314
v 0.000000 1.563658 -0.666281
v -0.632314 1.457980 -0.632314
v 0.666281 1.563658 0.000000
v -0.000000 1.679013 0.000000
v -0.666281 1.563658 -0.000000
v 0.632314 1.457980 0.632314
v -0.000000 1.563658 0.666281
v -0.632314 1.457980 0.632314
vt 0.000000 0.000000
vt 1.000000 0.000000
vt 1.000000 1.000000
vt 0.000000 1.000000
vt 0.000000 0.000000
vt 1.000000 0.000000
vt 1.000000 1.000000
vt 0.000000 1.000000
vt 0.000000 0.000000
vt 1.000000 0.000000
vt 1.000000 1.000000
vt 0.000000 1.000000
vt 0.000000 0.000000
vt 1.000000 0.000000
vt 1.000000 1.000000
vt 0.000000 1.000000
vt 0.000000 0.000000
vt 1.000000 0.000000
vt 1.000000 1.000000
vt 0.000000 1.000000
vt 0.000000 0.000000
vt 1.000000 0.000000
vt 1.000000 1.000000
vt 0.000000 1.000000
vt 0.000000 0.000000
vt 1.000000 0.000000
vt 1.000000 1.000000
vt 0.000000 1.000000
vt 0.000000 0.000000
vt 1.000000 0.000000
vt 1.000000 1.000000
vt 0.000000 1.000000
vt 0.000000 0.000000
vt 1.000000 0.000000
vt 1.000000 1.000000
vt 0.000000 1.000000
vt 0.000000 0.000000
vt 1.000000 0.000000
vt 1.000000 1.000000
vt 0.000000 1.000000
vt 0.000000 0.000000
vt 1.000000 0.000000
vt 1.000000 1.000000
vt 0.000000 1.000000
vt 0.000000 0.000000
vt 1.000000 0.000000
vt 1.000000 1.000000
vt 0.000000 1.000000
vt 0.000000 0.000000
vt 1.000000 0.000000
vt 1.000000 1.000000
vt 0.000000 1.000000
vt 0.000000 0.000000
vt 1.000000 0.000000
vt 1.000000 1.000000
vt 0.000000 1.000000
vt 0.000000 0.000000
vt 1.000000 0.000000
vt 1.000000 1.000000
vt 0.000000 1.000000
vt 0.000000 0.000000
vt 1.000000 0.000000
vt 1.000000 1.000000
vt 0.000000 1.000000
vt 0.000000 0.000000
vt 1.000000 0.000000
vt 1.000000 1.000000
vt 0.000000 1.000000
vt 0.000000 0.000000
vt 1.000000 0.000000
vt 1.000000 1.000000
vt 0.000000 1.000000
vt 0.000000 0.000000
vt 1.000000 0.000000
vt 1.000000 1.000000
vt 0.000000 1.000000
vt 0.000000 0.000000
vt 1.000000 0.000000
vt 1.000000 1.000000
vt 0.000000 1.000000
vt 0.000000 0.000000
vt 1.000000 0.000000
vt 1.000000 1.000000
vt 0.000000 1.000000
vt 0.000000 0.000000
vt 1.000000 0.000000
vt 1.000000 1.000000
vt 0.000000 1.000000
vt 0.000000 0.000000
vt 1.000000 0.000000
vt 1.000000 1.000000
vt 0.000000 1.000000
vt 0.000000 0.000000
vt 1.000000 0.000000
vt 1.000000 1.000000
vt 0.000000 1.000000
vt 0.000000 0.000000
vt 1.000000 0.000000
vt 1.000000 1.000000
vt 0.000000 1.000000
vt 0.000000 0.000000
vt 1.000000 0.000000
vt 1.000000 1.000000
vt 0.000000 1.000000
vt 0.000000 0.000000
vt 1.000000 0.000000
vt 1.000000 1.000000
vt 0.000000 1.000000
vt 0.000000 0.000000
vt 1.000000 0.000000
vt 1.000000 1.000000
vt 0.000000 1.000000
vt 0.000000 0.000000
vt 1.000000 0.000000
vt 1.000000 1.000000
vt 0.000000 1.000000
vt 0.000000 0.000000
vt 1.000000 0.000000
vt 1.000000 1.000000
vt 0.000000 1.000000
vt 0.000000 0.000000
vt 1.000000 0.000000
vt 1.000000 1.000000
vt 0.000000 1.000000
vt 0.000000 0.000000
vt 1.000000 0.000000
vt 1.000000 1.000000
vt 0.000000 1.000000
vt 0.000000 0.000000
vt 1.000000 0.000000
vt 1.000000 1.000000
vt 0.000000 1.000000
vt 0.000000 0.000000
vt 1.000000 0.000000
vt 1.000000 1.000000
vt 0.000000 1.000000
vt 0.000000 0.000000
vt 1.000000 0.000000
vt 1.000000 1.000000
vt 0.000000 1.000000
vt 0.000000 0.000000
vt 1.000000 0.000000
vt 1.000000 1.000000
vt 0.000000 1.000000
vt 0.000000 0.000000
vt 1.000000 0.000000
vt 1.000000 1.000000
vt 0.000000 1.000000
vt 0.000000 0.000000
vt 1.000000 0.000000
vt 1.000000 1.000000
vt 0.000000 1.000000
vt 0.000000 0.000000
vt 1.000000 0.000000
vt 1.000000 1.000000
vt 0.000000 1.000000
vt 0.000000 0.000000
vt 1.000000 0.000000
vt 1.000000 1.000000
vt 0.000000 1.000000
vt 0.000000 0.000000
vt 1.000000 0.000000
vt 1.000000 1.000000
vt 0.000000 1.000000
vt 0.000000 0.000000
vt 1.000000 0.000000
vt 1.000000 1.000000
vt 0.000000 1.000000
vt 0.000000 0.000000
vt 1.000000 0.000000
vt 1.000000 1.000000
vt 0.000000 1.000000
vt 0.000000 0.000000
vt 1.000000 0.000000
vt 1.000000 1.000000
vt 0.000000 1.000000
vt 0.000000 0.000000
vt 1.000000 0.000000
vt 1.000000 1.000000
vt 0.000000 1.000000
vt 0.000000 0.000000
vt 1.000000 0.000000
vt 1.000000 1.000000
vt 0.000000 1.000000
vt 0.000000 0.000000
vt 1.000000 0.000000
vt 1.000000 1.000000
vt 0.000000 1.000000
vt 0.000000 0.000000
vt 1.000000 0.000000
vt 1.000000 1.000000
vt 0.000000 1.000000
vt 0.000000 0.000000
vt 1.000000 0.000000
vt 1.000000 1.000000
vt 0.000000 1.000000
vt 0.000000 0.000000
vt 1.000000 0.000000
vt 1.000000 1.000000
vt 0.000000 1.000000
vt 0.000000 0.000000
vt 1.000000 0.000000
vt 1.000000 1.000000
vt 0.000000 1.000000
vt 0.000000 0.000000
vt 1.000000 0.000000
vt 1.000000 1.000000
vt 0.000000 1.000000
vt 0.000000 0.000000
vt 1.000000 0.000000
vt 1.000000 1.000000
vt 0.000000 1.000000
vt 0.000000 0.000000
vt 1.000000 0.000000
vt 1.000000 1.000000
vt 0.000000 1.000000
vt 0.000000 0.000000
vt 1.000000 0.000000
vt 1.000000 1.000000
vt 0.000000 1.000000
vt 0.000000 0.000000
vt 1.000000 0.000000
vt 1.000000 1.000000
vt 0.000000 1.000000
vt 0.000000 0.000000
vt 1.000000 0.000000
vt 1.000000 1.000000
vt 0.000000 1.000000
vt 0.000000 0.000000
vt 1.000000 0.000000
vt 1.000000 1.000000
vt 0.000000 1.000000
vt 0.000000 0.000000
vt 1.000000 0.000000
vt 1.000000 1.000000
vt 0.000000 1.000000
vt 0.000000 0.000000
vt 1.000000 0.000000
vt 1.000000 1.000000
vt 0.000000 1.000000
vt 0.000000 0.000000
vt 1.000000 0.000000
vt 1.000000 1.000000
vt 0.000000 1.000000
vt 0.000000 0.000000
vt 1.000000 0.000000
vt 1.000000 1.000000
vt 0.000000 1.000000
vt 0.000000 0.000000
vt 1.000000 0.000000
vt 1.000000 1.000000
vt 0.000000 1.000000
vt 0.000000 0.000000
vt 1.000000 0.000000
vt 1.000000 1.000000
vt 0.000000 1.000000
vt 0.000000 0.000000
vt 1.000000 0.000000
vt 1.000000 1.000000
vt 0.000000 1.000000
vt 0.000000 0.000000
vt 1.000000 0.000000
vt 1.000000 1.000000
vt 0.000000 1.000000
vt 0.000000 0.000000
vt 1.000000 0.000000
vt 1.000000 1.000000
vt 0.000000 1.000000
vt 0.000000 0.000000
vt 1.000000 0.000000
vt 1.000000 1.000000
vt 0.000000 1.000000
vt 1.000000 0.000000
vt 1.000000 1.000000
vt 1.000000 0.000000
vt 1.000000 1.000000
vt 0.000000 1.000000
vt 1.000000 0.000000
vt 1.000000 1.000000
vt 0.000000 1.000000
vt 1.000000 0.000000
vt 1.000000 1.000000
vt 0.000000 1.000000
vt 0.000000 0.000000
vt 1.000000 0.000000
vt 1.000000 1.000000
vt 0.000000 1.000000
vt 0.000000 0.000000
vt 1.000000 0.000000
vt 1.000000 1.000000
vt 0.000000 1.000000
vt 0.000000 0.000000
vt 1.000000 0.000000
vt 1.000000 1.000000
vt 0.000000 0.000000
vt 1.000000 0.000000
vt 1.000000 1.000000
vt 0.000000 0.000000
vt 1.000000 0.000000
vt 1.000000 1.000000
vt 1.000000 0.000000
vt 1.000000 1.000000
vt 1.000000 0.000000
vt 1.000000 1.000000
vt 1.000000 0.000000
vt 1.000000 1.000000
vt 0.000000 0.000000
vt 1.000000 0.000000
vt 1.000000 1.000000
vt 0.000000 1.000000
vt 0.000000 0.000000
vt 1.000000 0.000000
vt 1.000000 1.000000
vt 0.000000 1.000000
vt 0.000000 0.000000
vt 1.000000 0.000000
vt 1.000000 1.000000
vt 0.000000 1.000000
vt 0.000000 0.000000
vt 1.000000 0.000000
vt 1.000000 1.000000
vt 0.000000 1.000000
vt 0.000000 0.000000
vt 1.000000 1.000000
vt 0.000000 1.000000
vt 0.000000 0.000000
vt 1.000000 1.000000
vt 0.000000 1.000000
vt 0.000000 0.000000
vt 1.000000 1.000000
vt 0.000000 1.000000
vt 0.000000 0.000000
vt 0.000000 1.000000
vt 0.000000 0.000000
vt 0.000000 1.000000
vt 0.000000 0.000000
vt 0.000000 1.000000
vt 0.000000 0.000000
vt 0.000000 1.000000
vt 0.000000 0.000000
vt 1.000000 0.000000
vt 0.000000 1.000000
vt 0.000000 0.000000
vt 1.000000 0.000000
vt 0.000000 1.000000
vt 0.000000 0.000000
vt 1.000000 0.000000
vt 0.000000 1.000000
vt 0.000000 0.000000
vt 1.000000 0.000000
vt 1.000000 1.000000
vt 0.000000 1.000000
vt 0.000000 0.000000
vt 1.000000 0.000000
vt 1.000000 1.000000
vt 0.000000 1.000000
vn -0.8797 -0.3362 0.3362
vn -0.9344 0.0000 0.3560
vn -1.0000 0.0000 0.0000
vn -0.9344 -0.3560 0.0000
vn -0.8797 0.3362 0.3362
vn -0.9344 0.3560 0.0000
vn -0.9344 0.0000 -0.3560
vn -0.8797 -0.3362 -0.3362
vn -0.8797 0.3362 -0.3362
vn -0.5773 -0.5773 0.5773
vn -0.6709 -0.3157 0.6709
vn -0.6709 -0.6709 0.3157
vn -0.7071 0.0000 0.7071
vn -0.6709 0.3157 0.6709
vn -0.5773 0.5773 0.5773
vn -0.6709 0.6709 0.3157
vn -0.7071 0.7071 0.0000
vn -0.6709 0.6709 -0.3157
vn -0.5773 0.5773 -0.5773
vn -0.6709 0.3157 -0.6709
vn -0.7071 0.0000 -0.7071
vn -0.6709 -0.3157 -0.6709
vn -0.6709 -0.6709 -0.3157
vn -0.5773 -0.5773 -0.5773
vn -0.7071 -0.7071 0.0000
vn -0.3362 -0.3362 -0.8797
vn -0.3560 0.0000 -0.9344
vn 0.0000 0.0000 -1.0000
vn 0.0000 -0.3560 -0.9344
vn -0.3362 0.3362 -0.8797
vn 0.0000 0.3560 -0.9344
vn 0.3560 0.0000 -0.9344
vn 0.3362 -0.3362 -0.8797
vn 0.3362 0.3362 -0.8797
vn -0.3157 -0.6709 -0.6709
vn -0.3157 0.6709 -0.6709
vn 0.0000 0.7071 -0.7071
vn 0.3157 0.6709 -0.6709
vn 0.5773 0.5773 -0.5773
vn 0.6709 0.3157 -0.6709
vn 0.7071 0.0000 -0.7071
vn 0.6709 -0.3157 -0.6709
vn 0.3157 -0.6709 -0.6709
vn 0.5773 -0.5773 -0.5773
vn 0.0000 -0.7071 -0.7071
vn 0.8797 -0.3362 -0.3362
vn 0.9344 0.0000 -0.3560
vn 1.0000 0.0000 0.0000
vn 0.9344 -0.3560 0.0000
vn 0.8797 0.3362 -0.3362
vn 0.9344 0.3560 0.0000
vn 0.9344 0.0000 0.3560
vn 0.8797 -0.3362 0.3362
vn 0.8797 0.3362 0.3362
vn 0.6709 -0.6709 -0.3157
vn 0.6709 0.6709 -0.3157
vn 0.7071 0.7071 0.0000
vn 0.6709 0.6709 0.3157
vn 0.5773 0.5773 0.5773
vn 0.6709 0.3157 0.6709
vn 0.7071 0.0000 0.7071
vn 0.6709 -0.3157 0.6709
vn 0.6709 -0.6709 0.3157
vn 0.5773 -0.5773 0.5773
vn 0.7071 -0.7071 0.0000
vn 0.3362 -0.3362 0.8797
vn 0.3560 0.0000 0.9344
vn 0.0000 0.0000 1.0000
vn 0.0000 -0.3560 0.9344
vn 0.3362 0.3362 0.8797
vn 0.0000 0.3560 0.9344
vn -0.3560 0.0000 0.9344
vn -0.3362 -0.3362 0.8797
vn -0.3362 0.3362 0.8797
vn 0.3157 -0.6709 0.6709
vn 0.3157 0.6709 0.6709
vn 0.0000 0.7071 0.7071
vn -0.3157 0.6709 0.6709
vn -0.3157 -0.6709 0.6709
vn 0.0000 -0.7071 0.7071
vn -0.3362 -0.8797 -0.3362
vn 0.0000 -0.9344 -0.3560
vn 0.0000 -1.0000 0.0000
vn -0.3560 -0.9344 0.0000
vn 0.3362 -0.8797 -0.3362
vn 0.3560 -0.9344 0.0000
vn 0.0000 -0.9344 0.3560
vn -0.3362 -0.8797 0.3362
vn 0.3362 -0.8797 0.3362
vn 0.3362 0.8797 -0.3362
vn 0.0000 0.9344 -0.3560
vn 0.0000 1.0000 0.0000
vn 0.3560 0.9344 0.0000
vn -0.3362 0.8797 -0.3362
vn -0.3560 0.9344 0.0000
vn 0.0000 0.9344 0.3560
vn 0.3362 0.8797 0.3362
vn -0.3362 0.8797 0.3362
usemtl None
s 1
f 45/1/1 46/2/2 49/3/3 48/4/4
f 46/5/2 47/6/5 50/7/6 49/8/3
f 48/9/4 49/10/3 52/11/7 51/12/8
f 49/13/3 50/14/6 53/15/9 52/16/7
f 1/17/10 12/18/11 45/19/1 11/20/12
f 12/21/11 13/22/13 46/23/2 45/24/1
f 13/25/13 14/26/14 47/27/5 46/28/2
f 14/29/14 2/30/15 15/31/16 47/32/5
f 47/33/5 15/34/16 16/35/17 50/36/6
f 50/37/6 16/38/17 17/39/18 53/40/9
f 53/41/9 17/42/18 4/43/19 18/44/20
f 52/45/7 53/46/9 18/47/20 19/48/21
f 51/49/8 52/50/7 19/51/21 20/52/22
f 9/53/23 51/54/8 20/55/22 3/56/24
f 10/57/25 48/58/4 51/59/8 9/60/23
f 11/61/12 45/62/1 48/63/4 10/64/25
f 54/65/26 55/66/27 58/67/28 57/68/29
f 55/69/27 56/70/30 59/71/31 58/72/28
f 57/73/29 58/74/28 61/75/32 60/76/33
f 58/77/28 59/78/31 62/79/34 61/80/32
f 3/81/24 20/82/22 54/83/26 23/84/35
f 20/85/22 19/86/21 55/87/27 54/88/26
f 19/89/21 18/90/20 56/91/30 55/92/27
f 18/93/20 4/94/19 24/95/36 56/96/30
f 56/97/30 24/98/36 25/99/37 59/100/31
f 59/101/31 25/102/37 26/103/38 62/104/34
f 62/105/34 26/106/38 8/107/39 27/108/40
f 61/109/32 62/110/34 27/111/40 28/112/41
f 60/113/33 61/114/32 28/115/41 29/116/42
f 21/117/43 60/118/33 29/119/42 7/120/44
f 22/121/45 57/122/29 60/123/33 21/124/43
f 23/125/35 54/126/26 57/127/29 22/128/45
f 63/129/46 64/130/47 67/131/48 66/132/49
f 64/133/47 65/134/50 68/135/51 67/136/48
f 66/137/49 67/138/48 70/139/52 69/140/53
f 67/141/48 68/142/51 71/143/54 70/144/52
f 7/145/44 29/146/42 63/147/46 32/148/55
f 29/149/42 28/150/41 64/151/47 63/152/46
f 28/153/41 27/154/40 65/155/50 64/156/47
f 27/157/40 8/158/39 33/159/56 65/160/50
f 65/161/50 33/162/56 34/163/57 68/164/51
f 68/165/51 34/166/57 35/167/58 71/168/54
f 71/169/54 35/170/58 6/171/59 36/172/60
f 70/173/52 71/174/54 36/175/60 37/176/61
f 69/177/53 70/178/52 37/179/61 38/180/62
f 30/181/63 69/182/53 38/183/62 5/184/64
f 31/185/65 66/186/49 69/187/53 30/188/63
f 32/189/55 63/190/46 66/191/49 31/192/65
f 72/193/66 73/194/67 76/195/68 75/196/69
f 73/197/67 74/198/70 77/199/71 76/200/68
f 75/201/69 76/202/68 79/203/72 78/204/73
f 76/205/68 77/206/71 80/207/74 79/208/72
f 5/209/64 38/210/62 72/211/66 41/212/75
f 38/213/62 37/214/61 73/215/67 72/216/66
f 37/217/61 36/218/60 74/219/70 73/220/67
f 36/221/60 6/222/59 42/223/76 74/224/70
f 74/225/70 42/226/76 43/227/77 77/228/71
f 77/229/71 43/230/77 44/231/78 80/232/74
f 80/233/74 44/234/78 2/235/15 14/236/14
f 79/237/72 80/238/74 14/239/14 13/240/13
f 78/241/73 79/242/72 13/243/13 12/244/11
f 39/245/79 78/246/73 12/247/11 1/248/10
f 40/249/80 75/250/69 78/251/73 39/252/79
f 41/253/75 72/254/66 75/255/69 40/256/80
f 81/257/81 82/258/82 85/259/83 84/260/84
f 82/261/82 83/262/85 86/263/86 85/264/83
f 84/265/84 85/266/83 88/267/87 87/268/88
f 85/269/83 86/270/86 89/271/89 88/272/87
f 3/81/24 23/273/35 81/274/81 9/60/23
f 23/125/35 22/275/45 82/276/82 81/277/81
f 22/121/45 21/278/43 83/279/85 82/280/82
f 21/117/43 7/281/44 32/282/55 83/283/85
f 83/284/85 32/285/55 31/286/65 86/287/86
f 86/288/86 31/289/65 30/290/63 89/291/89
f 89/292/89 30/293/63 5/294/64 41/212/75
f 88/295/87 89/296/89 41/297/75 40/256/80
f 87/298/88 88/299/87 40/300/80 39/252/79
f 11/61/12 87/301/88 39/302/79 1/248/10
f 10/57/25 84/303/84 87/304/88 11/20/12
f 9/53/23 81/305/81 84/306/84 10/64/25
f 90/307/90 91/308/91 94/309/92 93/310/93
f 91/311/91 92/312/94 95/313/95 94/314/92
f 93/315/93 94/316/92 97/317/96 96/318/97
f 94/319/92 95/320/95 98/321/98 97/322/96
f 8/323/39 26/106/38 90/324/90 33/325/56
f 26/326/38 25/102/37 91/327/91 90/328/90
f 25/329/37 24/98/36 92/330/94 91/331/91
f 24/332/36 4/94/19 17/39/18 92/333/94
f 92/334/94 17/42/18 16/35/17 95/335/95
f 95/336/95 16/38/17 15/31/16 98/337/98
f 98/338/98 15/34/16 2/235/15 44/339/78
f 97/340/96 98/341/98 44/231/78 43/342/77
f 96/343/97 97/344/96 43/227/77 42/345/76
f 35/346/58 96/347/97 42/223/76 6/348/59
f 34/349/57 93/350/93 96/351/97 35/352/58
f 33/353/56 90/354/90 93/355/93 34/356/57
