# Blender 3.5.1
# www.blender.org
o Circle.003
v 0.000000 0.000000 0.086959
v 0.069644 0.000000 0.061489
v 0.098491 0.000000 0.000000
v 0.069644 0.000000 -0.061489
v 0.000000 0.000000 -0.086959
v -0.069644 0.000000 -0.061489
v -0.098491 0.000000 0.000000
v -0.069644 0.000000 0.061489
v 0.000000 0.293003 0.136765
v 0.109532 0.293003 0.096708
v 0.154902 0.293003 0.000000
v 0.109532 0.293003 -0.096708
v 0.000000 0.293003 -0.136765
v -0.109532 0.293003 -0.096708
v -0.154902 0.293003 0.000000
v -0.109532 0.293003 0.096708
v 0.000000 0.393424 0.123252
v 0.098710 0.393424 0.087153
v 0.139598 0.393424 0.000000
v 0.098710 0.393424 -0.087153
v 0.000000 0.393424 -0.123252
v -0.098710 0.393424 -0.087153
v -0.139598 0.393424 0.000000
v -0.098710 0.393424 0.087153
v -0.121003 0.062163 0.000000
v -0.141394 0.135647 0.000000
v -0.153711 0.210288 0.000000
v -0.085562 0.062163 -0.075544
v -0.099980 0.135647 -0.088274
v -0.108690 0.210288 -0.095964
v -0.000000 0.062163 -0.106835
v 0.000000 0.135647 -0.124838
v 0.000000 0.210288 -0.135713
v 0.153711 0.210288 0.000000
v 0.141394 0.135647 0.000000
v 0.121003 0.062163 -0.000000
v 0.085562 0.062163 -0.075544
v 0.099980 0.135647 -0.088274
v 0.108690 0.210288 -0.095964
v 0.085562 0.062163 0.075544
v 0.099980 0.135647 0.088274
v 0.108690 0.210288 0.095964
v -0.108690 0.210288 0.095964
v -0.099980 0.135647 0.088274
v -0.085562 0.062163 0.075544
v -0.000000 0.062163 0.106835
v -0.000000 0.135647 0.124838
v -0.000000 0.210288 0.135713
v 0.000000 0.694991 0.162853
v 0.115154 0.694991 0.115154
v 0.162853 0.694991 0.000000
v 0.115154 0.694991 -0.115154
v 0.000000 0.694991 -0.162853
v -0.115154 0.694991 -0.115154
v -0.162853 0.694991 0.000000
v -0.115154 0.694991 0.115154
v 0.000000 0.784371 0.144349
v 0.102070 0.784371 0.102070
v 0.144349 0.784371 0.000000
v 0.102070 0.784371 -0.102070
v 0.000000 0.784371 -0.144349
v -0.102070 0.784371 -0.102070
v -0.144349 0.784371 0.000000
v -0.102070 0.784371 0.102070
v -0.000000 0.880941 -0.000000
v -0.000000 0.855619 -0.094449
v -0.066785 0.855619 -0.066785
v 0.094449 0.855619 -0.000000
v 0.066785 0.855619 -0.066785
v -0.000000 0.855619 0.094449
v 0.066785 0.855619 0.066785
v -0.066785 0.855619 0.066785
v -0.094449 0.855619 -0.000000
v -0.128283 0.497494 0.000000
v -0.148651 0.560364 0.000000
v -0.161600 0.624224 0.000000
v -0.090710 0.497494 -0.090710
v -0.105112 0.560364 -0.105112
v -0.114269 0.624224 -0.114269
v -0.000000 0.497494 -0.128283
v 0.000000 0.560364 -0.148651
v 0.000000 0.624224 -0.161600
v 0.161600 0.624224 0.000000
v 0.148651 0.560364 0.000000
v 0.128283 0.497494 -0.000000
v 0.090710 0.497494 -0.090710
v 0.105112 0.560364 -0.105112
v 0.114269 0.624224 -0.114269
v 0.090710 0.497494 0.090710
v 0.105112 0.560364 0.105112
v 0.114269 0.624224 0.114269
v -0.114269 0.624224 0.114269
v -0.105112 0.560364 0.105112
v -0.090710 0.497494 0.090710
v -0.000000 0.497494 0.128283
v -0.000000 0.560364 0.148651
v -0.000000 0.624224 0.161600
v -0.077435 0.447957 0.077435
v -0.109510 0.447957 0.000000
v -0.077435 0.447957 -0.077435
v -0.000000 0.447957 -0.109510
v 0.077435 0.447957 -0.077435
v 0.109510 0.447957 -0.000000
v 0.077435 0.447957 0.077435
v 0.000000 0.447957 0.109510
vn 0.6742 -0.0821 -0.7339
vn -0.0000 -0.0775 -0.9970
vn -0.0000 0.0595 -0.9982
vn 0.6753 0.0630 -0.7348
vn 0.6742 -0.0821 0.7339
vn 0.9962 -0.0871 -0.0000
vn 0.9978 0.0669 -0.0000
vn 0.6753 0.0630 0.7348
vn -0.6742 -0.0821 0.7339
vn -0.0000 -0.0775 0.9970
vn -0.0000 0.0595 0.9982
vn -0.6753 0.0630 0.7348
vn -0.6742 -0.0821 -0.7339
vn -0.9962 -0.0871 -0.0000
vn -0.9978 0.0669 -0.0000
vn -0.6753 0.0630 -0.7348
vn -0.0000 0.2036 0.9791
vn -0.6673 0.2537 0.7002
vn -0.9556 0.2946 -0.0000
vn -0.6673 0.2537 -0.7002
vn -0.0000 0.2036 -0.9791
vn 0.6673 0.2537 -0.7002
vn 0.9556 0.2946 -0.0000
vn 0.6673 0.2537 0.7002
vn 0.9982 0.0606 -0.0000
vn 0.6827 0.0041 0.7307
vn -0.0000 -0.0430 -0.9991
vn 0.6827 0.0041 -0.7307
vn -0.9982 0.0606 -0.0000
vn -0.6827 0.0041 -0.7307
vn -0.0000 -0.0430 0.9991
vn -0.6827 0.0041 0.7307
vn 0.6676 -0.3295 0.6676
vn -0.0000 -0.3295 0.9441
vn 0.6620 -0.2003 -0.7222
vn -0.0000 -0.1893 -0.9819
vn 0.6471 -0.2846 -0.7073
vn -0.0000 -0.2695 -0.9630
vn 0.6329 -0.3213 -0.7044
vn -0.0000 -0.3046 -0.9525
vn 0.6620 -0.2003 0.7222
vn 0.9772 -0.2124 -0.0000
vn 0.6471 -0.2846 0.7073
vn 0.9536 -0.3012 -0.0000
vn 0.6329 -0.3213 0.7044
vn 0.9402 -0.3405 -0.0000
vn -0.6620 -0.2003 0.7222
vn -0.0000 -0.1893 0.9819
vn -0.6471 -0.2846 0.7073
vn -0.0000 -0.2695 0.9630
vn -0.6329 -0.3213 0.7044
vn -0.0000 -0.3046 0.9525
vn -0.6620 -0.2003 -0.7222
vn -0.9772 -0.2124 -0.0000
vn -0.6471 -0.2846 -0.7073
vn -0.9536 -0.3012 -0.0000
vn -0.6329 -0.3213 -0.7044
vn -0.9402 -0.3405 -0.0000
vn 0.7031 -0.1063 -0.7031
vn -0.0000 -0.1063 -0.9943
vn -0.0000 0.0907 -0.9959
vn 0.7042 0.0907 -0.7042
vn 0.7031 -0.1063 0.7031
vn 0.9943 -0.1063 -0.0000
vn 0.9959 0.0907 -0.0000
vn 0.7042 0.0907 0.7042
vn -0.7031 -0.1063 0.7031
vn -0.0000 -0.1063 0.9943
vn -0.0000 0.0907 0.9959
vn -0.7042 0.0907 0.7042
vn -0.7031 -0.1063 -0.7031
vn -0.9943 -0.1063 -0.0000
vn -0.9959 0.0907 -0.0000
vn -0.7042 0.0907 -0.7042
vn -0.0000 0.3795 0.9252
vn -0.6542 0.3795 0.6542
vn -0.9252 0.3795 -0.0000
vn -0.6542 0.3795 -0.6542
vn -0.0000 0.3795 -0.9252
vn 0.6542 0.3795 -0.6542
vn 0.9252 0.3795 -0.0000
vn 0.6542 0.3795 0.6542
vn -0.4421 0.7805 -0.4421
vn -0.0000 1.0000 -0.0000
vn -0.0000 0.7805 -0.6252
vn 0.4421 0.7805 -0.4421
vn 0.6252 0.7805 -0.0000
vn 0.4421 0.7805 0.4421
vn -0.0000 0.7805 0.6252
vn -0.4421 0.7805 0.4421
vn -0.6252 0.7805 -0.0000
vn 0.6846 -0.2505 -0.6846
vn -0.0000 -0.2505 -0.9681
vn 0.6676 -0.3295 -0.6676
vn -0.0000 -0.3295 -0.9441
vn -0.6676 -0.3295 -0.6676
vn 0.6846 -0.2505 0.6846
vn 0.9681 -0.2505 -0.0000
vn 0.9441 -0.3295 -0.0000
vn -0.6846 -0.2505 0.6846
vn -0.0000 -0.2505 0.9681
vn -0.6676 -0.3295 0.6676
vn -0.6846 -0.2505 -0.6846
vn -0.9681 -0.2505 -0.0000
vn -0.9441 -0.3295 -0.0000
vt 0.003709 1.000000
vt 0.997588 1.000000
vt 0.866155 1.000000
vt 0.743201 1.000000
vt 0.620547 1.000000
vt 0.491339 1.000000
vt 0.368104 1.000000
vt 0.251292 1.000000
vt 0.132306 1.000000
vt 0.003709 0.671453
vt 0.997589 0.671454
vt 0.866155 0.671454
vt 0.743201 0.671453
vt 0.620547 0.671453
vt 0.491339 0.671453
vt 0.368104 0.671453
vt 0.251292 0.671453
vt 0.132306 0.671453
vt 0.003709 0.556836
vt 0.997589 0.556836
vt 0.866155 0.556836
vt 0.743201 0.556836
vt 0.620547 0.556836
vt 0.491339 0.556836
vt 0.368104 0.556836
vt 0.251292 0.556836
vt 0.132306 0.556836
vt 0.251292 0.922169
vt 0.251292 0.839055
vt 0.251292 0.759348
vt 0.368104 0.922169
vt 0.368104 0.839055
vt 0.368104 0.759348
vt 0.491339 0.922169
vt 0.491339 0.839055
vt 0.491339 0.759348
vt 0.743201 0.759348
vt 0.743201 0.839055
vt 0.743201 0.922169
vt 0.620547 0.922169
vt 0.620547 0.839055
vt 0.620547 0.759348
vt 0.866155 0.922169
vt 0.866155 0.839055
vt 0.866155 0.759348
vt 0.132306 0.759348
vt 0.132306 0.839055
vt 0.132306 0.922169
vt 0.003709 0.922169
vt 0.997588 0.922169
vt 0.003709 0.839055
vt 0.997588 0.839055
vt 0.003709 0.759348
vt 0.997589 0.759348
vt 0.003709 0.194352
vt 0.997589 0.194352
vt 0.866156 0.194352
vt 0.743201 0.194352
vt 0.620547 0.194352
vt 0.491339 0.194352
vt 0.368104 0.194352
vt 0.251292 0.194352
vt 0.132306 0.194352
vt 0.003709 0.101813
vt 0.997589 0.101813
vt 0.866156 0.101813
vt 0.743201 0.101813
vt 0.620548 0.101813
vt 0.491339 0.101813
vt 0.368104 0.101813
vt 0.251292 0.101813
vt 0.132306 0.101813
vt 0.917215 0.082785
vt 1.000000 0.117076
vt 0.491339 0.000000
vt 0.951506 0.165570
vt 0.368104 0.000000
vt 0.951506 0.000000
vt 0.743201 0.000000
vt 1.000000 0.048494
vt 0.620548 0.000000
vt 0.834430 0.048494
vt 0.003709 0.000000
vt 0.997589 0.000000
vt 0.882924 0.000000
vt 0.866156 0.000000
vt 0.834430 0.117076
vt 0.132306 0.000000
vt 0.882924 0.165570
vt 0.251292 0.000000
vt 0.251292 0.413394
vt 0.251292 0.336187
vt 0.251292 0.266528
vt 0.368104 0.413394
vt 0.368104 0.336187
vt 0.368104 0.266528
vt 0.491339 0.413394
vt 0.491339 0.336187
vt 0.491339 0.266528
vt 0.743201 0.266528
vt 0.743201 0.336187
vt 0.743201 0.413394
vt 0.620547 0.413394
vt 0.620547 0.336187
vt 0.620547 0.266528
vt 0.866156 0.413394
vt 0.866155 0.336187
vt 0.866155 0.266528
vt 0.132306 0.266528
vt 0.132306 0.336187
vt 0.132306 0.413394
vt 0.003709 0.413394
vt 0.997589 0.413394
vt 0.003709 0.336187
vt 0.997589 0.336187
vt 0.003709 0.266528
vt 0.997589 0.266528
vt 0.132306 0.481637
vt 0.251292 0.481637
vt 0.368104 0.481637
vt 0.491339 0.481637
vt 0.620547 0.481637
vt 0.743201 0.481637
vt 0.866156 0.481637
vt 0.997589 0.481637
vt 0.003709 0.481637
s 1
f 39/42/1 33/36/2 13/15/3 12/14/4
f 42/45/5 34/37/6 11/13/7 10/12/8
f 43/46/9 48/53/10 9/10/11 16/18/12
f 30/33/13 27/30/14 15/17/15 14/16/16
f 27/30/14 43/46/9 16/18/12 15/17/15
f 9/10/11 17/19/17 24/27/18 16/18/12
f 15/17/15 23/26/19 22/25/20 14/16/16
f 13/15/3 21/24/21 20/23/22 12/14/4
f 11/13/7 19/22/23 18/21/24 10/12/8
f 16/18/12 24/27/18 23/26/19 15/17/15
f 14/16/16 22/25/20 21/24/21 13/15/3
f 12/14/4 20/23/22 19/22/23 11/13/7
f 10/12/8 18/21/24 17/20/17 9/11/11
f 19/22/23 103/123/25 104/124/26 18/21/24
f 21/24/21 101/121/27 102/122/28 20/23/22
f 23/26/19 99/119/29 100/120/30 22/25/20
f 17/19/17 105/126/31 98/118/32 24/27/18
f 18/21/24 104/124/26 105/125/31 17/20/17
f 20/23/22 102/122/28 103/123/25 19/22/23
f 22/25/20 100/120/30 101/121/27 21/24/21
f 104/124/26 89/106/33 95/113/34 105/125/31
f 34/37/6 39/42/1 12/14/4 11/13/7
f 48/54/10 42/45/5 10/12/8 9/11/11
f 33/36/2 30/33/13 14/16/16 13/15/3
f 38/41/35 32/35/36 33/36/2 39/42/1
f 37/40/37 31/34/38 32/35/36 38/41/35
f 4/5/39 5/6/40 31/34/38 37/40/37
f 41/44/41 35/38/42 34/37/6 42/45/5
f 40/43/43 36/39/44 35/38/42 41/44/41
f 2/3/45 3/4/46 36/39/44 40/43/43
f 44/47/47 47/51/48 48/53/10 43/46/9
f 45/48/49 46/49/50 47/51/48 44/47/47
f 8/9/51 1/1/52 46/49/50 45/48/49
f 29/32/53 26/29/54 27/30/14 30/33/13
f 28/31/55 25/28/56 26/29/54 29/32/53
f 6/7/57 7/8/58 25/28/56 28/31/55
f 26/29/54 44/47/47 43/46/9 27/30/14
f 25/28/56 45/48/49 44/47/47 26/29/54
f 7/8/58 8/9/51 45/48/49 25/28/56
f 35/38/42 38/41/35 39/42/1 34/37/6
f 36/39/44 37/40/37 38/41/35 35/38/42
f 3/4/46 4/5/39 37/40/37 36/39/44
f 47/52/48 41/44/41 42/45/5 48/54/10
f 46/50/50 40/43/43 41/44/41 47/52/48
f 1/2/52 2/3/45 40/43/43 46/50/50
f 32/35/36 29/32/53 30/33/13 33/36/2
f 31/34/38 28/31/55 29/32/53 32/35/36
f 5/6/40 6/7/57 28/31/55 31/34/38
f 88/105/59 82/99/60 53/60/61 52/59/62
f 91/108/63 83/100/64 51/58/65 50/57/66
f 92/109/67 97/116/68 49/55/69 56/63/70
f 79/96/71 76/93/72 55/62/73 54/61/74
f 76/93/72 92/109/67 56/63/70 55/62/73
f 49/55/69 57/64/75 64/72/76 56/63/70
f 55/62/73 63/71/77 62/70/78 54/61/74
f 53/60/61 61/69/79 60/68/80 52/59/62
f 51/58/65 59/67/81 58/66/82 50/57/66
f 56/63/70 64/72/76 63/71/77 55/62/73
f 54/61/74 62/70/78 61/69/79 53/60/61
f 52/59/62 60/68/80 59/67/81 51/58/65
f 50/57/66 58/66/82 57/65/75 49/56/69
f 67/76/83 65/73/84 66/74/85
f 69/80/86 65/73/84 68/78/87
f 71/85/88 65/73/84 70/82/89
f 70/82/89 65/73/84 72/87/90
f 73/89/91 65/73/84 67/76/83
f 66/74/85 65/73/84 69/80/86
f 68/78/87 65/73/84 71/85/88
f 72/87/90 65/73/84 73/89/91
f 64/72/76 72/88/90 73/90/91 63/71/77
f 59/67/81 68/79/87 71/86/88 58/66/82
f 61/69/79 66/75/85 69/81/86 60/68/80
f 63/71/77 73/90/91 67/77/83 62/70/78
f 57/64/75 70/83/89 72/88/90 64/72/76
f 58/66/82 71/86/88 70/84/89 57/65/75
f 60/68/80 69/81/86 68/79/87 59/67/81
f 62/70/78 67/77/83 66/75/85 61/69/79
f 83/100/64 88/105/59 52/59/62 51/58/65
f 97/117/68 91/108/63 50/57/66 49/56/69
f 82/99/60 79/96/71 54/61/74 53/60/61
f 87/104/92 81/98/93 82/99/60 88/105/59
f 86/103/94 80/97/95 81/98/93 87/104/92
f 100/120/30 77/94/96 80/97/95 101/121/27
f 90/107/97 84/101/98 83/100/64 91/108/63
f 89/106/33 85/102/99 84/101/98 90/107/97
f 102/122/28 86/103/94 85/102/99 103/123/25
f 93/110/100 96/114/101 97/116/68 92/109/67
f 94/111/102 95/112/34 96/114/101 93/110/100
f 78/95/103 75/92/104 76/93/72 79/96/71
f 77/94/96 74/91/105 75/92/104 78/95/103
f 98/118/32 94/111/102 74/91/105 99/119/29
f 75/92/104 93/110/100 92/109/67 76/93/72
f 74/91/105 94/111/102 93/110/100 75/92/104
f 105/126/31 95/112/34 94/111/102 98/118/32
f 84/101/98 87/104/92 88/105/59 83/100/64
f 85/102/99 86/103/94 87/104/92 84/101/98
f 101/121/27 80/97/95 86/103/94 102/122/28
f 96/115/101 90/107/97 91/108/63 97/117/68
f 95/113/34 89/106/33 90/107/97 96/115/101
f 103/123/25 85/102/99 89/106/33 104/124/26
f 81/98/93 78/95/103 79/96/71 82/99/60
f 80/97/95 77/94/96 78/95/103 81/98/93
f 99/119/29 74/91/105 77/94/96 100/120/30
f 24/27/18 98/118/32 99/119/29 23/26/19
