# Blender 3.5.1
# www.blender.org
o Circle
v 0.000000 0.000000 0.129942
v 0.091883 0.000000 0.091883
v 0.129942 0.000000 0.000000
v 0.091883 0.000000 -0.091883
v 0.000000 0.000000 -0.129942
v -0.091883 0.000000 -0.091883
v -0.129942 0.000000 0.000000
v -0.091883 0.000000 0.091883
v 0.000000 1.012802 0.228557
v 0.161614 1.012802 0.161614
v 0.228557 1.012802 0.000000
v 0.161614 1.012802 -0.161614
v 0.000000 1.012802 -0.228557
v -0.161614 1.012802 -0.161614
v -0.228557 1.012802 0.000000
v -0.161614 1.012802 0.161614
v 0.000000 1.151783 0.200981
v 0.142115 1.151783 0.142115
v 0.200981 1.151783 0.000000
v 0.142115 1.151783 -0.142115
v 0.000000 1.151783 -0.200981
v -0.142115 1.151783 -0.142115
v -0.200981 1.151783 0.000000
v -0.142115 1.151783 0.142115
v -0.000000 1.367203 -0.000000
v 0.000000 1.301122 -0.138358
v -0.097834 1.301122 -0.097834
v 0.138358 1.301122 0.000000
v 0.097834 1.301122 -0.097834
v 0.000000 1.301122 0.138358
v 0.097834 1.301122 0.097834
v -0.097834 1.301122 0.097834
v -0.138358 1.301122 0.000000
v -0.090456 0.651231 0.045919
v -0.089380 0.683683 0.032470
v -0.088934 0.697125 -0.000000
v -0.089380 0.683683 -0.032470
v -0.090456 0.651231 -0.045919
v -0.091532 0.618779 -0.032470
v -0.091977 0.605337 -0.000000
v -0.091532 0.618779 0.032470
v -0.444566 0.944549 0.080768
v -0.387455 0.944772 0.057112
v -0.363798 0.944865 0.000000
v -0.387455 0.944772 -0.057112
v -0.444566 0.944549 -0.080768
v -0.501677 0.944326 -0.057112
v -0.525333 0.944233 0.000000
v -0.501677 0.944326 0.057112
v -0.444758 0.993662 0.071023
v -0.394537 0.993859 0.050221
v -0.373735 0.993940 0.000000
v -0.394537 0.993859 -0.050221
v -0.444758 0.993662 -0.071023
v -0.494978 0.993466 -0.050221
v -0.515780 0.993385 0.000000
v -0.494978 0.993466 0.050221
v -0.445055 1.069787 0.000000
v -0.444964 1.046436 -0.048893
v -0.479537 1.046300 -0.034573
v -0.396071 1.046626 0.000000
v -0.410392 1.046571 -0.034573
v -0.444964 1.046436 0.048893
v -0.410392 1.046571 0.034573
v -0.479537 1.046300 0.034573
v -0.493857 1.046245 0.000000
v -0.317775 0.673533 0.049354
v -0.420176 0.747306 0.056646
v -0.381006 0.701270 0.050340
v -0.455757 0.728911 0.040055
v -0.328485 0.639526 0.034977
v -0.408837 0.678735 0.035618
v -0.384595 0.765701 0.040055
v -0.307219 0.707424 0.034816
v -0.353230 0.723802 0.035573
v -0.384595 0.765701 -0.040055
v -0.307219 0.707424 -0.034816
v -0.353230 0.723802 -0.035573
v -0.303003 0.721402 0.000000
v -0.369857 0.773320 0.000000
v -0.341771 0.733145 0.000000
v -0.317775 0.673533 -0.049354
v -0.420176 0.747306 -0.056646
v -0.381006 0.701270 -0.050340
v -0.455757 0.728911 -0.040055
v -0.328485 0.639526 -0.034977
v -0.408837 0.678735 -0.035618
v -0.332868 0.625434 0.000000
v -0.470495 0.721291 0.000000
v -0.420353 0.669391 0.000000
v 0.088934 0.541892 -0.000105
v 0.089418 0.528450 0.032364
v 0.387387 0.789539 -0.057569
v 0.363798 0.789632 -0.000429
v 0.444661 0.789316 0.080243
v 0.525333 0.789001 -0.000620
v 0.501609 0.789093 -0.057703
v 0.444674 0.838430 -0.071548
v 0.394596 0.838626 0.049756
v 0.444841 0.838430 0.070498
v 0.445055 0.914555 -0.000525
v 0.479577 0.891068 0.034007
v 0.396071 0.891394 -0.000467
v 0.410432 0.891338 0.034089
v 0.410351 0.891338 -0.035057
v 0.380946 0.546038 -0.050790
v 0.455709 0.573678 -0.040592
v 0.328444 0.484293 -0.035364
v 0.408794 0.523503 -0.036100
v 0.307178 0.552191 -0.035178
v 0.353188 0.568570 -0.035989
v 0.353272 0.568570 0.035156
v 0.303003 0.566169 -0.000357
v 0.369857 0.618088 -0.000436
v 0.455804 0.573678 0.039517
v 0.328526 0.484293 0.034589
v 0.408879 0.523503 0.035136
v 0.332867 0.470201 -0.000393
v 0.090402 0.495998 -0.046026
v 0.089342 0.528450 -0.032575
v 0.090510 0.495998 0.045812
v 0.091570 0.463546 0.032362
v 0.091977 0.450104 -0.000108
v 0.091493 0.463546 -0.032578
v 0.444470 0.789316 -0.081292
v 0.387522 0.789539 0.056654
v 0.501744 0.789093 0.056520
v 0.394478 0.838626 -0.050686
v 0.373735 0.838707 -0.000441
v 0.495037 0.838233 0.049637
v 0.515780 0.838152 -0.000608
v 0.494919 0.838233 -0.050805
v 0.445021 0.891203 0.048368
v 0.444906 0.891203 -0.049418
v 0.479495 0.891068 -0.035138
v 0.493857 0.891012 -0.000583
v 0.317717 0.518300 -0.049728
v 0.420109 0.592073 -0.057142
v 0.384547 0.610468 -0.040508
v 0.384642 0.610468 0.039601
v 0.307260 0.552191 0.034453
v 0.341771 0.577913 -0.000403
v 0.317833 0.518300 0.048979
v 0.420242 0.592073 0.056150
v 0.381065 0.546038 0.049891
v 0.470495 0.566059 -0.000555
v 0.420352 0.514159 -0.000496
vn 0.7038 -0.0969 -0.7038
vn -0.0000 -0.0969 -0.9953
vn -0.0000 0.0477 -0.9989
vn 0.7063 0.0477 -0.7063
vn 0.7038 -0.0969 0.7038
vn 0.9953 -0.0969 -0.0000
vn 0.9989 0.0477 -0.0000
vn 0.7063 0.0477 0.7063
vn -0.7038 -0.0969 0.7038
vn -0.0000 -0.0969 0.9953
vn -0.0000 0.0477 0.9989
vn -0.7063 0.0477 0.7063
vn -0.7038 -0.0969 -0.7038
vn -0.9953 -0.0969 -0.0000
vn -0.9989 0.0477 -0.0000
vn -0.7063 0.0477 -0.7063
vn -0.0000 0.2855 0.9584
vn -0.6777 0.2855 0.6777
vn -0.9584 0.2855 -0.0000
vn -0.6777 0.2855 -0.6777
vn -0.0000 0.2855 -0.9584
vn 0.6777 0.2855 -0.6777
vn 0.9584 0.2855 -0.0000
vn 0.6777 0.2855 0.6777
vn -0.5381 0.6487 -0.5381
vn -0.0000 1.0000 -0.0000
vn -0.0000 0.6487 -0.7610
vn 0.5381 0.6487 -0.5381
vn 0.7610 0.6487 -0.0000
vn 0.5381 0.6487 0.5381
vn -0.0000 0.6487 0.7610
vn -0.5381 0.6487 0.5381
vn -0.7610 0.6487 -0.0000
vn 0.9623 0.2722 -0.0000
vn 0.6473 0.1455 -0.7482
vn 0.7074 0.0706 -0.7033
vn 0.9965 0.0832 -0.0000
vn 0.0834 0.6953 -0.7139
vn 0.0135 -0.0167 -0.9998
vn 0.0002 -0.0380 -0.9993
vn 0.1644 0.6794 -0.7151
vn -0.8751 -0.4839 -0.0000
vn -0.6331 -0.3789 0.6750
vn -0.7124 -0.0065 0.7017
vn -0.9997 -0.0236 -0.0000
vn -0.0830 -0.9965 -0.0000
vn -0.0551 -0.7135 0.6985
vn -0.1902 -0.7041 0.6842
vn -0.2694 -0.9630 -0.0000
vn -0.0042 0.0343 0.9994
vn -0.0011 0.2855 0.9584
vn -0.6788 0.2829 0.6777
vn -0.9595 0.2818 -0.0000
vn -0.6788 0.2829 -0.6777
vn -0.7124 -0.0065 -0.7017
vn -0.0042 0.0343 -0.9994
vn -0.0011 0.2855 -0.9584
vn 0.6766 0.2882 -0.6777
vn 0.9573 0.2893 -0.0000
vn 0.6766 0.2882 0.6777
vn 0.7074 0.0706 0.7033
vn -0.5406 0.6466 -0.5381
vn -0.0039 1.0000 -0.0000
vn -0.0025 0.6487 -0.7610
vn 0.5356 0.6508 -0.5381
vn 0.7585 0.6517 -0.0000
vn 0.5356 0.6508 0.5381
vn -0.0025 0.6487 0.7610
vn -0.5406 0.6466 0.5381
vn -0.7635 0.6458 -0.0000
vn -0.0551 -0.7135 -0.6985
vn -0.1902 -0.7041 -0.6842
vn 0.0135 -0.0167 0.9998
vn 0.0834 0.6953 0.7139
vn 0.1644 0.6794 0.7151
vn 0.0002 -0.0380 0.9993
vn -0.0255 -0.1252 -0.9918
vn -0.6331 -0.3789 -0.6750
vn -0.0255 -0.1252 0.9918
vn 0.1127 0.9936 -0.0000
vn 0.2148 0.9767 -0.0000
vn 0.6473 0.1455 0.7482
vn 0.0077 -0.0946 -0.9955
vn -0.4189 -0.6084 -0.6741
vn 0.0077 -0.0946 0.9955
vn 0.4221 0.5153 0.7459
vn 0.5834 0.8122 -0.0000
vn 0.4221 0.5153 -0.7459
vn -0.5963 -0.8027 -0.0000
vn -0.4189 -0.6084 0.6741
vn -0.9623 0.2722 0.0011
vn -0.6464 0.1455 0.7490
vn -0.7065 0.0706 0.7041
vn -0.9965 0.0832 0.0012
vn -0.0826 0.6953 0.7140
vn -0.0123 -0.0167 0.9998
vn 0.0010 -0.0380 0.9993
vn -0.1636 0.6794 0.7153
vn 0.8751 -0.4839 -0.0010
vn 0.6323 -0.3789 -0.6757
vn 0.7116 -0.0065 -0.7026
vn 0.9997 -0.0236 -0.0012
vn 0.0830 -0.9965 -0.0001
vn 0.0543 -0.7135 -0.6985
vn 0.1894 -0.7041 -0.6844
vn 0.2694 -0.9630 -0.0003
vn 0.0031 0.0343 -0.9994
vn 0.6780 0.2829 -0.6785
vn 0.9595 0.2818 -0.0011
vn 0.6796 0.2829 0.6769
vn 0.7132 -0.0065 0.7009
vn 0.0054 0.0343 0.9994
vn 0.0022 0.2855 0.9584
vn -0.6758 0.2882 0.6785
vn -0.9573 0.2893 0.0011
vn -0.6774 0.2882 -0.6769
vn -0.7082 0.0706 -0.7025
vn 0.5413 0.6466 0.5375
vn 0.0039 1.0000 -0.0000
vn 0.0034 0.6487 0.7610
vn -0.5349 0.6508 0.5387
vn -0.7585 0.6517 0.0009
vn -0.5362 0.6508 -0.5375
vn 0.0016 0.6487 -0.7610
vn 0.5400 0.6466 -0.5388
vn 0.7635 0.6458 -0.0009
vn 0.0559 -0.7135 0.6984
vn 0.1910 -0.7041 0.6839
vn -0.0146 -0.0167 -0.9998
vn -0.0843 0.6953 -0.7138
vn -0.1653 0.6794 -0.7149
vn -0.0014 -0.0380 -0.9993
vn 0.0267 -0.1252 0.9918
vn 0.6339 -0.3789 0.6742
vn 0.0244 -0.1252 -0.9918
vn -0.1127 0.9936 0.0001
vn -0.2148 0.9767 0.0003
vn -0.6482 0.1455 -0.7475
vn -0.0065 -0.0946 0.9955
vn 0.4197 -0.6084 0.6736
vn -0.0089 -0.0946 -0.9955
vn -0.4230 0.5153 -0.7454
vn -0.5834 0.8122 0.0007
vn -0.4212 0.5153 0.7464
vn 0.5963 -0.8027 -0.0007
vn 0.4181 -0.6084 -0.6746
vt 0.270474 0.005941
vt 0.144049 0.005941
vt 0.006889 0.005941
vt 0.995093 0.005941
vt 0.863267 0.005941
vt 0.740830 0.005941
vt 0.624064 0.005941
vt 0.508744 0.005941
vt 0.391414 0.005941
vt 0.270474 0.712632
vt 0.144049 0.712632
vt 0.006889 0.712632
vt 0.995093 0.712632
vt 0.863267 0.712632
vt 0.740830 0.712632
vt 0.624064 0.712632
vt 0.508744 0.712632
vt 0.391414 0.712632
vt 0.270474 0.830149
vt 0.144049 0.830149
vt 0.006889 0.830149
vt 0.995093 0.830149
vt 0.863267 0.830149
vt 0.740830 0.830149
vt 0.624064 0.830149
vt 0.508744 0.830149
vt 0.391414 0.830149
vt 0.921222 0.077093
vt 0.998314 0.045160
vt 0.740830 0.987981
vt 0.953154 0.000000
vt 0.624064 0.987981
vt 0.953155 0.154186
vt 0.006889 0.987981
vt 0.995093 0.987981
vt 0.998314 0.109026
vt 0.863267 0.987981
vt 0.844129 0.109026
vt 0.270474 0.987981
vt 0.889289 0.154185
vt 0.144049 0.987981
vt 0.844129 0.045160
vt 0.391414 0.987981
vt 0.889289 0.000000
vt 0.508744 0.987981
vt 0.275192 0.012280
vt 0.148626 0.012280
vt 0.006196 0.012280
vt 0.993312 0.012280
vt 0.852214 0.012280
vt 0.726499 0.012280
vt 0.611102 0.012280
vt 0.500931 0.012280
vt 0.390772 0.012280
vt 0.275192 0.672468
vt 0.148626 0.672468
vt 0.993312 0.672468
vt 0.006196 0.672468
vt 0.852214 0.672468
vt 0.726499 0.672468
vt 0.611102 0.672468
vt 0.500931 0.672468
vt 0.390772 0.672468
vt 0.275192 0.802894
vt 0.148626 0.802894
vt 0.006196 0.802894
vt 0.993312 0.802894
vt 0.852214 0.802894
vt 0.726499 0.802894
vt 0.611102 0.802894
vt 0.500931 0.802894
vt 0.390772 0.802894
vt 0.921222 0.077093
vt 0.889289 0.154185
vt 0.726499 0.982929
vt 0.953155 0.154186
vt 0.611102 0.982929
vt 0.844129 0.045160
vt 0.006196 0.982929
vt 0.993312 0.982929
vt 0.844129 0.109026
vt 0.852214 0.982929
vt 0.953154 0.000000
vt 0.275192 0.982929
vt 0.889289 0.000000
vt 0.148626 0.982929
vt 0.998314 0.045160
vt 0.390772 0.982929
vt 0.998314 0.109026
vt 0.500931 0.982929
vt 0.275192 0.228205
vt 0.275192 0.565531
vt 0.275192 0.408561
vt 0.390772 0.565531
vt 0.390772 0.228205
vt 0.390772 0.408561
vt 0.148626 0.565531
vt 0.148626 0.228205
vt 0.148626 0.408561
vt 0.852214 0.565531
vt 0.852214 0.228205
vt 0.852214 0.408561
vt 0.993312 0.228205
vt 0.006196 0.228205
vt 0.993312 0.565531
vt 0.006196 0.565531
vt 0.993312 0.408561
vt 0.006196 0.408561
vt 0.726499 0.228205
vt 0.726499 0.565531
vt 0.726499 0.408561
vt 0.611102 0.565531
vt 0.611102 0.228205
vt 0.611102 0.408561
vt 0.500931 0.228205
vt 0.500931 0.565531
vt 0.500931 0.408561
vt 0.006197 0.012179
vt 0.993314 0.012179
vt 0.852215 0.012179
vt 0.148628 0.672367
vt 0.993314 0.672367
vt 0.006197 0.672367
vt 0.726501 0.672367
vt 0.500933 0.672367
vt 0.390773 0.672367
vt 0.275193 0.802794
vt 0.852215 0.802794
vt 0.726501 0.802794
vt 0.921222 0.077093
vt 0.844129 0.109026
vt 0.611103 0.984360
vt 0.953154 0.000000
vt 0.006197 0.984360
vt 0.993314 0.984360
vt 0.889289 0.000000
vt 0.852215 0.984360
vt 0.998314 0.045160
vt 0.148628 0.984360
vt 0.275193 0.408460
vt 0.390773 0.565430
vt 0.390773 0.228104
vt 0.390773 0.408460
vt 0.148628 0.228104
vt 0.148628 0.408460
vt 0.852215 0.408460
vt 0.993314 0.228104
vt 0.006197 0.228104
vt 0.993314 0.565430
vt 0.006197 0.565430
vt 0.611103 0.565430
vt 0.611103 0.228104
vt 0.611103 0.408460
vt 0.500933 0.228104
vt 0.275193 0.012179
vt 0.148628 0.012179
vt 0.726501 0.012179
vt 0.611103 0.012179
vt 0.500933 0.012179
vt 0.390773 0.012179
vt 0.275193 0.672367
vt 0.852215 0.672367
vt 0.611103 0.672367
vt 0.148628 0.802794
vt 0.006197 0.802794
vt 0.993314 0.802794
vt 0.611103 0.802794
vt 0.500933 0.802794
vt 0.390773 0.802794
vt 0.844129 0.045160
vt 0.726501 0.984360
vt 0.998314 0.109026
vt 0.275193 0.984360
vt 0.953155 0.154186
vt 0.390773 0.984360
vt 0.889289 0.154185
vt 0.500933 0.984360
vt 0.275193 0.228104
vt 0.275193 0.565430
vt 0.148628 0.565430
vt 0.852215 0.565430
vt 0.852215 0.228104
vt 0.993314 0.408460
vt 0.006197 0.408460
vt 0.726501 0.228104
vt 0.726501 0.565430
vt 0.726501 0.408460
vt 0.500933 0.565430
vt 0.500933 0.408460
s 1
f 4/5/1 5/6/2 13/15/3 12/14/4
f 2/2/5 3/3/6 11/12/7 10/11/8
f 8/9/9 1/1/10 9/10/11 16/18/12
f 6/7/13 7/8/14 15/17/15 14/16/16
f 7/8/14 8/9/9 16/18/12 15/17/15
f 9/10/11 17/19/17 24/27/18 16/18/12
f 15/17/15 23/26/19 22/25/20 14/16/16
f 13/15/3 21/24/21 20/23/22 12/14/4
f 11/12/7 19/21/23 18/20/24 10/11/8
f 16/18/12 24/27/18 23/26/19 15/17/15
f 14/16/16 22/25/20 21/24/21 13/15/3
f 12/14/4 20/23/22 19/22/23 11/13/7
f 10/11/8 18/20/24 17/19/17 9/10/11
f 27/31/25 25/28/26 26/29/27
f 29/36/28 25/28/26 28/33/29
f 31/40/30 25/28/26 30/38/31
f 30/38/31 25/28/26 32/42/32
f 33/44/33 25/28/26 27/31/25
f 26/29/27 25/28/26 29/36/28
f 28/33/29 25/28/26 31/40/30
f 32/42/32 25/28/26 33/44/33
f 24/27/18 32/43/32 33/45/33 23/26/19
f 19/21/23 28/34/29 31/41/30 18/20/24
f 21/24/21 26/30/27 29/37/28 20/23/22
f 23/26/19 33/45/33 27/32/25 22/25/20
f 17/19/17 30/39/31 32/43/32 24/27/18
f 18/20/24 31/41/30 30/39/31 17/19/17
f 20/23/22 29/37/28 28/35/29 19/22/23
f 22/25/20 27/32/25 26/30/27 21/24/21
f 3/4/6 4/5/1 12/14/4 11/13/7
f 1/1/10 2/2/5 10/11/8 9/10/11
f 5/6/2 6/7/13 14/16/16 13/15/3
f 80/105/34 76/100/35 45/59/36 44/57/37
f 37/50/38 38/51/39 82/109/40 77/101/41
f 89/116/42 70/94/43 49/63/44 48/62/45
f 40/53/46 41/54/47 71/95/48 88/115/49
f 42/55/50 50/64/51 57/72/52 49/63/44
f 48/62/45 56/71/53 55/70/54 47/61/55
f 46/60/56 54/69/57 53/68/58 45/59/36
f 44/58/37 52/66/59 51/65/60 43/56/61
f 49/63/44 57/72/52 56/71/53 48/62/45
f 47/61/55 55/70/54 54/69/57 46/60/56
f 45/59/36 53/68/58 52/67/59 44/57/37
f 43/56/61 51/65/60 50/64/51 42/55/50
f 60/76/62 58/73/63 59/74/64
f 62/81/65 58/73/63 61/78/66
f 64/85/67 58/73/63 63/83/68
f 63/83/68 58/73/63 65/87/69
f 66/89/70 58/73/63 60/76/62
f 59/74/64 58/73/63 62/81/65
f 61/78/66 58/73/63 64/85/67
f 65/87/69 58/73/63 66/89/70
f 57/72/52 65/88/69 66/90/70 56/71/53
f 52/66/59 61/79/66 64/86/67 51/65/60
f 54/69/57 59/75/64 62/82/65 53/68/58
f 56/71/53 66/90/70 60/77/62 55/70/54
f 50/64/51 63/84/68 65/88/69 57/72/52
f 51/65/60 64/86/67 63/84/68 50/64/51
f 53/68/58 62/82/65 61/80/66 52/67/59
f 55/70/54 60/77/62 59/75/64 54/69/57
f 38/51/39 39/52/71 86/113/72 82/109/40
f 34/46/73 35/47/74 74/98/75 67/91/76
f 39/52/71 40/53/46 88/115/49 86/113/72
f 83/110/77 85/112/78 47/61/55 46/60/56
f 70/94/43 68/92/79 42/55/50 49/63/44
f 76/100/35 83/110/77 46/60/56 45/59/36
f 35/47/74 36/48/80 79/104/81 74/98/75
f 85/112/78 89/116/42 48/62/45 47/61/55
f 68/92/79 73/97/82 43/56/61 42/55/50
f 73/97/82 80/106/34 44/58/37 43/56/61
f 36/49/80 37/50/38 77/101/41 79/103/81
f 83/110/77 84/111/83 87/114/84 85/112/78
f 84/111/83 82/109/40 86/113/72 87/114/84
f 68/92/79 69/93/85 75/99/86 73/97/82
f 69/93/85 67/91/76 74/98/75 75/99/86
f 80/105/34 81/107/87 78/102/88 76/100/35
f 81/107/87 79/103/81 77/101/41 78/102/88
f 89/116/42 90/117/89 72/96/90 70/94/43
f 90/117/89 88/115/49 71/95/48 72/96/90
f 85/112/78 87/114/84 90/117/89 89/116/42
f 87/114/84 86/113/72 88/115/49 90/117/89
f 70/94/43 72/96/90 69/93/85 68/92/79
f 72/96/90 71/95/48 67/91/76 69/93/85
f 73/97/82 75/99/86 81/108/87 80/106/34
f 75/99/86 74/98/75 79/104/81 81/108/87
f 76/100/35 78/102/88 84/111/83 83/110/77
f 78/102/88 77/101/41 82/109/40 84/111/83
f 41/54/47 34/46/73 67/91/76 71/95/48
f 114/149/91 140/181/92 126/162/93 94/122/94
f 92/120/95 121/157/96 143/185/97 141/182/98
f 146/188/99 107/141/100 97/126/101 96/125/102
f 123/159/103 124/160/104 108/142/105 118/154/106
f 125/161/107 98/127/21 132/169/108 97/126/101
f 96/125/102 131/168/109 130/167/110 127/163/111
f 95/124/112 100/129/113 99/128/114 126/162/93
f 94/123/94 129/165/115 128/164/116 93/121/117
f 97/126/101 132/169/108 131/168/109 96/125/102
f 127/163/111 130/167/110 100/129/113 95/124/112
f 126/162/93 99/128/114 129/166/115 94/122/94
f 93/121/117 128/164/116 98/127/21 125/161/107
f 102/131/118 101/130/119 133/170/120
f 104/136/121 101/130/119 103/133/122
f 105/138/123 101/130/119 134/172/124
f 134/172/124 101/130/119 135/174/125
f 136/176/126 101/130/119 102/131/118
f 133/170/120 101/130/119 104/136/121
f 103/133/122 101/130/119 105/138/123
f 135/174/125 101/130/119 136/176/126
f 129/165/115 103/134/122 105/139/123 128/164/116
f 100/129/113 133/171/120 104/137/121 99/128/114
f 131/168/109 136/177/126 102/132/118 130/167/110
f 98/127/21 134/173/124 135/175/125 132/169/108
f 128/164/116 105/139/123 134/173/124 98/127/21
f 99/128/114 104/137/121 103/135/122 129/166/115
f 130/167/110 102/132/118 133/171/120 100/129/113
f 121/157/96 122/158/127 116/152/128 143/185/97
f 119/155/129 120/156/130 110/144/131 137/178/132
f 122/158/127 123/159/103 118/154/106 116/152/128
f 144/186/133 115/151/134 127/163/111 95/124/112
f 107/141/100 138/179/135 125/161/107 97/126/101
f 140/181/92 144/186/133 95/124/112 126/162/93
f 120/156/130 91/118/136 113/148/137 110/144/131
f 115/151/134 146/188/99 96/125/102 127/163/111
f 138/179/135 139/180/138 93/121/117 125/161/107
f 139/180/138 114/150/91 94/123/94 93/121/117
f 91/119/136 92/120/95 141/182/98 113/147/137
f 144/186/133 145/187/139 117/153/140 115/151/134
f 145/187/139 143/185/97 116/152/128 117/153/140
f 138/179/135 106/140/141 111/145/142 139/180/138
f 106/140/141 137/178/132 110/144/131 111/145/142
f 114/149/91 142/183/143 112/146/144 140/181/92
f 142/183/143 113/147/137 141/182/98 112/146/144
f 146/188/99 147/189/145 109/143/146 107/141/100
f 147/189/145 118/154/106 108/142/105 109/143/146
f 115/151/134 117/153/140 147/189/145 146/188/99
f 117/153/140 116/152/128 118/154/106 147/189/145
f 107/141/100 109/143/146 106/140/141 138/179/135
f 109/143/146 108/142/105 137/178/132 106/140/141
f 139/180/138 111/145/142 142/184/143 114/150/91
f 111/145/142 110/144/131 113/148/137 142/184/143
f 140/181/92 112/146/144 145/187/139 144/186/133
f 112/146/144 141/182/98 143/185/97 145/187/139
f 124/160/104 119/155/129 137/178/132 108/142/105
f 132/169/108 135/175/125 136/177/126 131/168/109
