# Blender 3.5.1
# www.blender.org
o Circle.004
v 0.124536 0.000000 0.041158
v 0.170201 0.000000 -0.007877
v 0.167818 0.000000 -0.074840
v 0.118784 0.000000 -0.120505
v 0.051821 0.000000 -0.118122
v 0.006156 0.000000 -0.069087
v 0.008539 0.000000 -0.002124
v 0.057574 0.000000 0.043541
v 0.315342 1.015480 0.067187
v 0.413282 0.995116 -0.038850
v 0.407514 0.986681 -0.184268
v 0.301418 0.995116 -0.283882
v 0.157143 1.015480 -0.279341
v 0.059203 1.035844 -0.173305
v 0.064971 1.044279 -0.027887
v 0.171067 1.035844 0.071728
v 0.321729 1.129968 0.039009
v 0.407852 1.112061 -0.054234
v 0.402781 1.104643 -0.182107
v 0.309485 1.112061 -0.269703
v 0.182617 1.129968 -0.265709
v 0.096494 1.147875 -0.172466
v 0.101565 1.155292 -0.044594
v 0.194861 1.147875 0.043002
v 0.276865 1.307422 -0.124623
v 0.221407 1.252987 -0.226051
v 0.162119 1.265314 -0.161861
v 0.372971 1.235554 -0.168498
v 0.308745 1.240660 -0.228800
v 0.317174 1.252987 -0.016279
v 0.376462 1.240660 -0.080469
v 0.229837 1.265314 -0.013530
v 0.165611 1.270421 -0.073832
v -0.096326 0.751403 -0.047148
v -0.093323 0.748383 -0.099168
v -0.179319 0.733801 -0.140315
v -0.127700 0.741092 -0.137759
v -0.220945 0.733801 -0.053319
v -0.217943 0.730781 -0.105339
v -0.134949 0.748383 -0.012172
v -0.186568 0.741092 -0.014728
v -0.161577 0.773288 -0.078369
v -0.054402 0.678922 -0.104740
v -0.058763 0.683309 -0.029175
v -0.114868 0.678922 0.021632
v -0.189851 0.668331 0.017919
v -0.239788 0.657740 -0.038139
v -0.235426 0.653353 -0.113705
v -0.179321 0.657740 -0.164512
v -0.104338 0.668331 -0.160799
v -0.032340 0.612661 -0.104839
v -0.037300 0.617650 -0.018905
v -0.101103 0.612661 0.038873
v -0.186374 0.600616 0.034650
v -0.243162 0.588572 -0.029100
v -0.238202 0.583583 -0.115033
v -0.174399 0.588572 -0.172811
v -0.089128 0.600616 -0.168589
v -0.002080 0.000000 -0.042643
v -0.004203 0.000000 -0.003069
v -0.033687 0.000000 0.023413
v -0.073261 0.000000 0.021291
v -0.099743 0.000000 -0.008193
v -0.097621 0.000000 -0.047768
v -0.068137 0.000000 -0.074250
v -0.028563 0.000000 -0.072127
v 0.222828 0.727322 -0.050177
v 0.217407 0.760685 -0.059805
v 0.197526 0.776654 -0.083990
v 0.174829 0.765875 -0.108563
v 0.162614 0.734661 -0.119131
v 0.168035 0.701298 -0.109503
v 0.187917 0.685329 -0.085319
v 0.210613 0.696108 -0.060745
v 0.003205 1.029501 0.220187
v 0.030593 1.029553 0.164768
v 0.010917 1.033356 0.106290
v -0.044298 1.038682 0.079007
v -0.102707 1.042410 0.098903
v -0.130095 1.042358 0.154321
v -0.110419 1.038556 0.212800
v -0.055204 1.033230 0.240082
v 0.000590 1.079211 0.214782
v 0.024674 1.079257 0.166050
v 0.007372 1.082601 0.114627
v -0.041181 1.087284 0.090636
v -0.092543 1.090563 0.108131
v -0.116627 1.090517 0.156863
v -0.099325 1.087173 0.208286
v -0.050772 1.082490 0.232277
v -0.040125 1.160730 0.164420
v -0.073977 1.141372 0.126801
v -0.090557 1.141340 0.160349
v -0.005195 1.135891 0.131272
v -0.038619 1.139114 0.114757
v -0.009863 1.133557 0.200221
v 0.006716 1.133589 0.166673
v -0.045221 1.135814 0.212265
v -0.078646 1.139038 0.195749
v 0.056181 0.757465 0.103131
v -0.010037 0.834066 0.178821
v 0.011565 0.787298 0.146581
v -0.049098 0.818351 0.189161
v 0.035999 0.725124 0.098163
v -0.020782 0.767031 0.153062
v 0.007268 0.852432 0.143567
v 0.057279 0.792007 0.086485
v 0.024536 0.809921 0.117993
v -0.045256 0.858834 0.083419
v 0.011625 0.797571 0.034204
v -0.022111 0.815607 0.064576
v 0.038733 0.808561 0.058072
v -0.007320 0.862692 0.104050
v 0.010562 0.821658 0.084067
v -0.008537 0.765353 0.029019
v -0.084317 0.843120 0.093759
v -0.054447 0.795344 0.070988
v -0.101623 0.824753 0.129014
v -0.009866 0.730715 0.045641
v -0.067488 0.772723 0.099577
v 0.008652 0.714040 0.074280
v -0.087034 0.814494 0.168530
v -0.053527 0.760984 0.133575
vn 0.3057 -0.2084 -0.9290
vn -0.4569 -0.0932 -0.8846
vn -0.4058 0.0453 -0.9128
vn 0.3505 -0.0643 -0.9344
vn 0.9022 -0.2084 0.3776
vn 0.8790 -0.2575 -0.4013
vn 0.9042 -0.1096 -0.4128
vn 0.9356 -0.0643 0.3473
vn -0.3775 0.0160 0.9259
vn 0.3691 -0.0932 0.9247
vn 0.4238 0.0453 0.9046
vn -0.3338 0.1551 0.9298
vn -0.9469 0.0160 -0.3212
vn -0.9081 0.0593 0.4146
vn -0.8912 0.2004 0.4069
vn -0.9212 0.1551 -0.3568
vn 0.4373 0.2822 0.8539
vn -0.2887 0.3847 0.8767
vn -0.8225 0.4271 0.3755
vn -0.8515 0.3847 -0.3562
vn -0.3587 0.2822 -0.8897
vn 0.3672 0.1798 -0.9126
vn 0.9011 0.1373 -0.4114
vn 0.9301 0.1798 0.3203
vn -0.6181 0.7226 -0.3093
vn 0.1375 0.9885 -0.0628
vn -0.2268 0.6413 -0.7330
vn 0.3496 0.5599 -0.7512
vn 0.7736 0.5262 -0.3531
vn 0.7966 0.5599 0.2279
vn 0.4053 0.6413 0.6515
vn -0.1712 0.7226 0.6697
vn -0.5951 0.7564 0.2717
vn -0.3857 -0.0932 0.9179
vn 0.3608 0.0160 0.9325
vn 0.3170 0.1551 0.9356
vn -0.4401 0.0453 0.8968
vn 0.4728 -0.0932 -0.8762
vn -0.2889 -0.2084 -0.9344
vn -0.3336 -0.0643 -0.9405
vn 0.4222 0.0453 -0.9054
vn -0.8716 -0.2575 -0.4171
vn -0.9089 -0.2084 0.3613
vn -0.9417 -0.0643 0.3303
vn -0.8966 -0.1096 -0.4290
vn 0.2728 0.3847 0.8818
vn 0.1591 0.7226 0.6727
vn -0.4169 0.6413 0.6441
vn -0.4526 0.2822 0.8459
vn -0.9357 0.1798 0.3035
vn -0.8006 0.5599 0.2135
vn -0.7671 0.5262 -0.3670
vn -0.8935 0.1373 -0.4275
vn -0.3507 0.1798 -0.9191
vn -0.3361 0.5599 -0.7573
vn 0.2400 0.6413 -0.7288
vn 0.3747 0.2822 -0.8831
vn 0.6236 0.7226 -0.2982
vn 0.8578 0.3847 -0.3408
vn 0.8156 0.4271 0.3903
vn 0.5901 0.7564 0.2823
vn -0.1364 0.9885 -0.0653
vn 0.9275 0.1551 -0.3402
vn 0.8838 0.2004 0.4229
vn 0.9005 0.0593 0.4309
vn 0.9525 0.0160 -0.3041
vn 0.7442 0.2364 -0.6247
vn 0.0070 0.1814 -0.9834
vn 0.0756 0.1010 -0.9920
vn 0.7549 0.0469 -0.6542
vn -0.3500 0.7466 -0.5658
vn -0.6467 0.0627 -0.7601
vn -0.6580 0.0420 -0.7518
vn -0.2912 0.7280 -0.6207
vn -0.6957 -0.4505 0.5596
vn -0.0631 -0.4085 0.9106
vn -0.0753 -0.0368 0.9965
vn -0.7525 0.0126 0.6585
vn -0.1418 -0.9897 0.0185
vn 0.3596 -0.7646 0.5348
vn 0.2496 -0.7492 0.6135
vn -0.2791 -0.9496 0.1426
vn 0.6548 -0.0456 0.7544
vn 0.6503 0.2079 0.7307
vn -0.0428 0.2521 0.9668
vn -0.6979 0.3153 0.6430
vn -0.9314 0.3604 -0.0509
vn -0.9955 0.0754 -0.0573
vn -0.6557 0.1142 -0.7463
vn -0.6064 0.3610 -0.7085
vn 0.0867 0.3168 -0.9445
vn 0.7418 0.2536 -0.6208
vn 0.9753 0.2085 0.0731
vn 0.9979 -0.0114 0.0641
vn -0.7072 0.7067 -0.0240
vn 0.0769 0.9963 0.0389
vn -0.4491 0.7071 -0.5461
vn 0.1012 0.6720 -0.7336
vn 0.6215 0.6218 -0.4765
vn 0.8069 0.5860 0.0745
vn 0.5488 0.5855 0.5966
vn -0.0015 0.6206 0.7841
vn -0.5218 0.6708 0.5270
vn -0.5563 -0.6530 -0.5140
vn -0.6475 -0.6398 -0.4139
vn 0.6643 -0.0971 0.7412
vn 0.5862 0.6325 0.5063
vn 0.6466 0.6137 0.4532
vn 0.6523 -0.1177 0.7488
vn -0.6795 -0.0445 -0.7324
vn -0.9482 -0.3006 -0.1030
vn 0.6211 -0.2030 0.7570
vn 0.1639 0.9857 -0.0382
vn 0.2392 0.9651 -0.1062
vn 0.9882 0.0618 0.1402
vn -0.6545 -0.0150 -0.7559
vn -0.8050 -0.5370 -0.2520
vn 0.6509 -0.1741 0.7389
vn 0.8471 0.4385 0.3004
vn 0.5029 0.7880 -0.3553
vn -0.1310 0.5577 -0.8197
vn -0.5118 -0.7781 0.3641
vn 0.0789 -0.6448 0.7603
vt 0.735252 0.005316
vt 0.617183 0.005316
vt 0.502963 0.005316
vt 0.388341 0.005316
vt 0.269187 0.005316
vt 0.141436 0.005316
vt 0.000000 0.005316
vt 0.999784 0.005316
vt 0.861183 0.005316
vt 0.735252 0.782913
vt 0.617183 0.782913
vt 0.502963 0.782913
vt 0.388341 0.782913
vt 0.269187 0.782913
vt 0.141436 0.782913
vt 0.000000 0.782913
vt 0.999784 0.782913
vt 0.861183 0.782913
vt 0.735252 0.874300
vt 0.617183 0.874300
vt 0.502963 0.874300
vt 0.388341 0.874300
vt 0.269187 0.874300
vt 0.141436 0.874300
vt 0.999784 0.874300
vt 0.000000 0.874300
vt 0.861183 0.874300
vt 0.931688 0.070137
vt 0.904635 0.135446
vt 0.269187 0.998134
vt 0.958739 0.135446
vt 0.141436 0.998134
vt 0.866378 0.043085
vt 0.502963 0.998134
vt 0.866378 0.097189
vt 0.388341 0.998134
vt 0.958739 0.004827
vt 0.735252 0.998134
vt 0.904635 0.004828
vt 0.617183 0.998134
vt 0.996997 0.043085
vt 0.861183 0.998134
vt 0.996997 0.097189
vt 0.999784 0.998134
vt 0.000000 0.998134
vt 0.141436 0.998134
vt 0.866378 0.043085
vt 0.999784 0.998134
vt 0.000000 0.998134
vt 0.866378 0.097189
vt 0.735252 0.998134
vt 0.958739 0.135446
vt 0.861183 0.998134
vt 0.904635 0.135446
vt 0.502963 0.998134
vt 0.996997 0.043085
vt 0.617183 0.998134
vt 0.996997 0.097189
vt 0.269187 0.998134
vt 0.904635 0.004828
vt 0.388341 0.998134
vt 0.958739 0.004827
vt 0.931688 0.070137
vt 0.000000 0.874300
vt 0.999784 0.874300
vt 0.141436 0.874300
vt 0.269187 0.874300
vt 0.388341 0.874300
vt 0.502963 0.874300
vt 0.617183 0.874300
vt 0.735252 0.874300
vt 0.861183 0.874300
vt 0.000000 0.782913
vt 0.999784 0.782913
vt 0.141436 0.782913
vt 0.269187 0.782913
vt 0.388341 0.782913
vt 0.502963 0.782913
vt 0.617183 0.782913
vt 0.735252 0.782913
vt 0.861183 0.782913
vt 0.000000 0.005316
vt 0.999784 0.005316
vt 0.141436 0.005316
vt 0.269187 0.005316
vt 0.388341 0.005316
vt 0.502963 0.005316
vt 0.617183 0.005316
vt 0.735252 0.005316
vt 0.861183 0.005316
vt 0.269187 0.005316
vt 0.141436 0.005316
vt 0.000000 0.005316
vt 0.999784 0.005316
vt 0.861183 0.005316
vt 0.735252 0.005316
vt 0.617183 0.005316
vt 0.502963 0.005316
vt 0.388341 0.005316
vt 0.269187 0.822485
vt 0.141436 0.822485
vt 0.999784 0.822485
vt 0.000000 0.822485
vt 0.861183 0.822485
vt 0.735252 0.822485
vt 0.617183 0.822485
vt 0.502963 0.822485
vt 0.388341 0.822485
vt 0.269187 0.895971
vt 0.141436 0.895971
vt 0.000000 0.895971
vt 0.999784 0.895971
vt 0.861183 0.895971
vt 0.735252 0.895971
vt 0.617183 0.895971
vt 0.502963 0.895971
vt 0.388341 0.895971
vt 0.931688 0.070137
vt 0.904635 0.135446
vt 0.735252 0.998134
vt 0.958739 0.135446
vt 0.617183 0.998134
vt 0.866378 0.043085
vt 0.000000 0.998134
vt 0.999784 0.998134
vt 0.866378 0.097189
vt 0.861183 0.998134
vt 0.958739 0.004827
vt 0.269187 0.998134
vt 0.904635 0.004828
vt 0.141436 0.998134
vt 0.996997 0.043085
vt 0.388341 0.998134
vt 0.996997 0.097189
vt 0.502963 0.998134
vt 0.269187 0.357192
vt 0.269187 0.546833
vt 0.269187 0.458591
vt 0.388341 0.546833
vt 0.388341 0.357192
vt 0.388341 0.458591
vt 0.141436 0.546833
vt 0.141436 0.357192
vt 0.141436 0.458591
vt 0.861183 0.546833
vt 0.861183 0.357192
vt 0.861183 0.458591
vt 0.999784 0.357192
vt 0.000000 0.357192
vt 0.999784 0.546833
vt 0.000000 0.546833
vt 0.999784 0.458591
vt 0.000000 0.458591
vt 0.735252 0.357192
vt 0.735252 0.546833
vt 0.735252 0.458591
vt 0.617183 0.546833
vt 0.617183 0.357192
vt 0.617183 0.458591
vt 0.502963 0.357192
vt 0.502963 0.546833
vt 0.502963 0.458591
s 1
f 4/4/1 5/5/2 13/14/3 12/13/4
f 2/2/5 3/3/6 11/12/7 10/11/8
f 8/9/9 1/1/10 9/10/11 16/18/12
f 6/6/13 7/7/14 15/16/15 14/15/16
f 7/8/14 8/9/9 16/18/12 15/17/15
f 9/10/11 17/19/17 24/27/18 16/18/12
f 15/16/15 23/26/19 22/24/20 14/15/16
f 13/14/3 21/23/21 20/22/22 12/13/4
f 11/12/7 19/21/23 18/20/24 10/11/8
f 16/18/12 24/27/18 23/25/19 15/17/15
f 14/15/16 22/24/20 21/23/21 13/14/3
f 12/13/4 20/22/22 19/21/23 11/12/7
f 10/11/8 18/20/24 17/19/17 9/10/11
f 27/31/25 25/28/26 26/29/27
f 29/35/28 25/28/26 28/33/29
f 31/39/30 25/28/26 30/37/31
f 30/37/31 25/28/26 32/41/32
f 33/43/33 25/28/26 27/31/25
f 26/29/27 25/28/26 29/35/28
f 28/33/29 25/28/26 31/39/30
f 32/41/32 25/28/26 33/43/33
f 24/27/18 32/42/32 33/44/33 23/25/19
f 19/21/23 28/34/29 31/40/30 18/20/24
f 21/23/21 26/30/27 29/36/28 20/22/22
f 23/26/19 33/45/33 27/32/25 22/24/20
f 17/19/17 30/38/31 32/42/32 24/27/18
f 18/20/24 31/40/30 30/38/31 17/19/17
f 20/22/22 29/36/28 28/34/29 19/21/23
f 22/24/20 27/32/25 26/30/27 21/23/21
f 3/3/6 4/4/1 12/13/4 11/12/7
f 1/1/10 2/2/5 10/11/8 9/10/11
f 5/5/2 6/6/13 14/15/16 13/14/3
f 62/86/34 61/85/35 53/76/36 54/77/37
f 66/90/38 65/89/39 57/80/40 58/81/41
f 64/88/42 63/87/43 55/78/44 56/79/45
f 45/67/46 40/59/47 41/61/48 46/68/49
f 47/69/50 38/55/51 39/57/52 48/70/53
f 49/71/54 36/51/55 37/53/56 50/72/57
f 50/72/57 37/53/56 35/48/58 43/65/59
f 44/66/60 34/46/61 40/59/47 45/67/46
f 46/68/49 41/61/48 38/55/51 47/69/50
f 48/70/53 39/57/52 36/51/55 49/71/54
f 43/64/59 35/49/58 34/46/61 44/66/60
f 35/50/58 42/63/62 34/47/61
f 39/58/52 42/63/62 36/52/55
f 41/62/48 42/63/62 38/56/51
f 34/47/61 42/63/62 40/60/47
f 37/54/56 42/63/62 35/50/58
f 36/52/55 42/63/62 37/54/56
f 38/56/51 42/63/62 39/58/52
f 40/60/47 42/63/62 41/62/48
f 57/80/40 49/71/54 50/72/57 58/81/41
f 55/78/44 47/69/50 48/70/53 56/79/45
f 53/76/36 45/67/46 46/68/49 54/77/37
f 51/73/63 43/64/59 44/66/60 52/75/64
f 56/79/45 48/70/53 49/71/54 57/80/40
f 54/77/37 46/68/49 47/69/50 55/78/44
f 52/75/64 44/66/60 45/67/46 53/76/36
f 58/81/41 50/72/57 43/65/59 51/74/63
f 60/84/65 59/82/66 51/73/63 52/75/64
f 61/85/35 60/84/65 52/75/64 53/76/36
f 59/83/66 66/90/38 58/81/41 51/74/63
f 65/89/39 64/88/42 56/79/45 57/80/40
f 63/87/43 62/86/34 54/77/37 55/78/44
f 113/150/67 109/145/68 78/104/69 77/102/70
f 70/95/71 71/96/72 115/154/73 110/146/74
f 122/161/75 103/139/76 82/108/77 81/107/78
f 73/98/79 74/99/80 104/140/81 121/160/82
f 75/100/83 83/109/84 90/117/85 82/108/77
f 81/107/78 89/116/86 88/115/87 80/106/88
f 79/105/89 87/114/90 86/113/91 78/104/69
f 77/103/70 85/111/92 84/110/93 76/101/94
f 82/108/77 90/117/85 89/116/86 81/107/78
f 80/106/88 88/115/87 87/114/90 79/105/89
f 78/104/69 86/113/91 85/112/92 77/102/70
f 76/101/94 84/110/93 83/109/84 75/100/83
f 93/121/95 91/118/96 92/119/97
f 95/126/98 91/118/96 94/123/99
f 97/130/100 91/118/96 96/128/101
f 96/128/101 91/118/96 98/132/102
f 99/134/103 91/118/96 93/121/95
f 92/119/97 91/118/96 95/126/98
f 94/123/99 91/118/96 97/130/100
f 98/132/102 91/118/96 99/134/103
f 90/117/85 98/133/102 99/135/103 89/116/86
f 85/111/92 94/124/99 97/131/100 84/110/93
f 87/114/90 92/120/97 95/127/98 86/113/91
f 89/116/86 99/135/103 93/122/95 88/115/87
f 83/109/84 96/129/101 98/133/102 90/117/85
f 84/110/93 97/131/100 96/129/101 83/109/84
f 86/113/91 95/127/98 94/125/99 85/112/92
f 88/115/87 93/122/95 92/120/97 87/114/90
f 71/96/72 72/97/104 119/158/105 115/154/73
f 67/91/106 68/92/107 107/143/108 100/136/109
f 72/97/104 73/98/79 121/160/82 119/158/105
f 116/155/110 118/157/111 80/106/88 79/105/89
f 103/139/76 101/137/112 75/100/83 82/108/77
f 109/145/68 116/155/110 79/105/89 78/104/69
f 68/92/107 69/93/113 112/149/114 107/143/108
f 118/157/111 122/161/75 81/107/78 80/106/88
f 101/137/112 106/142/115 76/101/94 75/100/83
f 106/142/115 113/151/67 77/103/70 76/101/94
f 69/94/113 70/95/71 110/146/74 112/148/114
f 116/155/110 117/156/116 120/159/117 118/157/111
f 117/156/116 115/154/73 119/158/105 120/159/117
f 101/137/112 102/138/118 108/144/119 106/142/115
f 102/138/118 100/136/109 107/143/108 108/144/119
f 113/150/67 114/152/120 111/147/121 109/145/68
f 114/152/120 112/148/114 110/146/74 111/147/121
f 122/161/75 123/162/122 105/141/123 103/139/76
f 123/162/122 121/160/82 104/140/81 105/141/123
f 118/157/111 120/159/117 123/162/122 122/161/75
f 120/159/117 119/158/105 121/160/82 123/162/122
f 103/139/76 105/141/123 102/138/118 101/137/112
f 105/141/123 104/140/81 100/136/109 102/138/118
f 106/142/115 108/144/119 114/153/120 113/151/67
f 108/144/119 107/143/108 112/149/114 114/153/120
f 109/145/68 111/147/121 117/156/116 116/155/110
f 111/147/121 110/146/74 115/154/73 117/156/116
f 74/99/80 67/91/106 100/136/109 104/140/81
